/* XPM */
static char *ac2db193edd34aa1dde9cc680810050bIqdb7E9V2xnmwGRQ[] = {
/* columns rows colors chars-per-pixel */
"64 64 197 2 ",
"   c None",
".  c #010000",
"X  c #0B0405",
"o  c #0D0B0C",
"O  c #060808",
"+  c #140C0B",
"@  c #1B0F15",
"#  c #121010",
"$  c #1B1213",
"%  c #1D1B1B",
"&  c #251315",
"*  c #211B1C",
"=  c #2A191B",
"-  c #261519",
";  c #351F1C",
":  c #3A211E",
">  c #37201D",
",  c #341D25",
"<  c #2B2626",
"1  c #2E292A",
"2  c #252323",
"3  c #352323",
"4  c #3B282C",
"5  c #353232",
"6  c #3B3434",
"7  c #3D3A3A",
"8  c #462429",
"9  c #4B292D",
"0  c #472828",
"q  c #4F312F",
"w  c #4C2D34",
"e  c #522F3A",
"r  c #463D3D",
"t  c #4F3C3D",
"y  c #4C3435",
"u  c #583633",
"i  c #583837",
"p  c #643934",
"a  c #69393E",
"s  c #643638",
"d  c #56413F",
"f  c #6C433C",
"g  c #573141",
"h  c #5C3443",
"j  c #653B44",
"k  c #6A3E45",
"l  c #4D4646",
"z  c #4E4848",
"x  c #4E4748",
"c  c #524344",
"v  c #524A4A",
"b  c #5B4C4D",
"n  c #5E5354",
"m  c #5E5959",
"M  c #5B5455",
"N  c #6D4349",
"B  c #644C4F",
"V  c #6C494D",
"C  c #664544",
"Z  c #734547",
"A  c #724A44",
"S  c #75454A",
"D  c #7E474B",
"F  c #734A4D",
"G  c #7C4A4B",
"H  c #7F534B",
"J  c #654E51",
"K  c #6C4E50",
"L  c #734D51",
"P  c #7B4D52",
"I  c #655455",
"U  c #685254",
"Y  c #635B5B",
"T  c #6A5C5C",
"R  c #675857",
"E  c #745453",
"W  c #7C5354",
"Q  c #75575A",
"!  c #7A565A",
"~  c #745C5B",
"^  c #7C5B5C",
"/  c #775A57",
"(  c #6F605F",
")  c #655F60",
"_  c #6A5F60",
"`  c #7C5E61",
"'  c #6C6263",
"]  c #6F6A68",
"[  c #726465",
"{  c #7B6365",
"}  c #706967",
"|  c #786966",
" . c #706768",
".. c #7A6768",
"X. c #746A6A",
"o. c #7A6B6C",
"O. c #7E706F",
"+. c #75706D",
"@. c #7D7272",
"#. c #8A4E47",
"$. c #80474B",
"%. c #834B4C",
"&. c #884C4D",
"*. c #844D47",
"=. c #904F4F",
"-. c #84514D",
";. c #8C524E",
":. c #865849",
">. c #92524F",
",. c #945B4F",
"<. c #814D50",
"1. c #8B4F50",
"2. c #855452",
"3. c #8C5452",
"4. c #845A55",
"5. c #8B5954",
"6. c #825659",
"7. c #835A5B",
"8. c #8D5E5B",
"9. c #935350",
"0. c #995651",
"q. c #955A53",
"w. c #9B5952",
"e. c #965E59",
"r. c #995F5A",
"t. c #A35E53",
"y. c #95634F",
"u. c #8E635F",
"i. c #9C6151",
"p. c #96625D",
"a. c #A56254",
"s. c #AB6555",
"d. c #A66953",
"f. c #AC6A54",
"g. c #A46B59",
"h. c #AC6C59",
"j. c #A16758",
"k. c #B36D56",
"l. c #B26E59",
"z. c #AC725C",
"x. c #A47058",
"c. c #B47156",
"v. c #BA7457",
"b. c #BE7857",
"n. c #B4735C",
"m. c #BB765A",
"M. c #B57B5F",
"N. c #BE795A",
"B. c #846462",
"V. c #8B6362",
"C. c #806668",
"Z. c #826969",
"A. c #886B69",
"S. c #816F70",
"D. c #847473",
"F. c #827977",
"G. c #867A79",
"H. c #8A7C7B",
"J. c #8B7171",
"K. c #907472",
"L. c #936561",
"P. c #BA7E61",
"I. c #C17B59",
"U. c #C37C59",
"Y. c #C47F5B",
"T. c #C57D59",
"R. c #C27F5F",
"E. c #C17F61",
"W. c #8E827F",
"Q. c #94827F",
"!. c #BE8363",
"~. c #BE8262",
"^. c #C6825D",
"/. c #C58764",
"(. c #C48463",
"). c #C98661",
"_. c #C58965",
"`. c #CD8A61",
"'. c #CE8B61",
"]. c #C88965",
"[. c #CD8E66",
"{. c #CB8C65",
"}. c #D08E66",
"|. c #D49467",
" X c #D39669",
".X c #D79768",
"XX c #D59669",
"oX c #D29469",
"OX c #D6996B",
"+X c #D6996B",
"@X c #DB9D6C",
"#X c #DB9D6C",
"$X c #D89768",
"%X c #DEA06D",
"&X c #8F8381",
"*X c #918481",
"=X c #978986",
/* pixels */
"                                        h h h e h h g h g g h g g g g g g g g h e h g g                                         ",
"                                        h h h h j h h h j i j h h j j h j h h j h j j h                                         ",
"                                        k k k k k N k k N k C k k k k k k k k k C k k k                                         ",
"                                      Z G G %.-.%.G -.%.G %.*.-.$.%.%.H %.H %.$.%.-.G G S                                       ",
"                          g g g e h j S :.,.i.i.i.y.i.i.y.,.i.,.i.,.i.i.i.q.i.i.i.,.,.:.S j h e h g g                           ",
"                        h j h h h j k &.,.d.k.c.c.k.c.c.c.c.c.c.c.c.c.c.c.c.c.c.c.c.f.,.%.k j h h h j i                         ",
"                        k N k k j k Z -.a.c.b.I.I.b.b.b.b.I.b.b.b.b.b.b.b.b.b.b.I.b.c.i.;.Z k j j k N k                         ",
"                      Z G G G G Z Z G ,.d.c.I.T.T.I.I.I.I.I.I.I.Y.b.I.I.I.I.I.^.T.I.v.a.,.G S S G G G G S                       ",
"          h h e g h j G :.,.,.,.=.&.>.w.f.v.I.Y.Y.I.I.I.I.Y.I.I.b.Y.I.I.I.I.I.T.T.I.v.f.t.=.&.;.,.,.,.;.G j h h g h e           ",
"        h j h h h h k %.,.f.f.s.t.t.w.a.k.v.b.I.I.I.b.I.b.N.b.I.b.N.b.b.b.b.I.I.I.b.v.f.t.t.w.a.d.c.d.,.%.k h h h h j h         ",
"        k k k j j k Z :.a.k.v.c.s.t.t.s.k.v.b.I.I.v.b.b.I.b.b.b.N.b.I.b.I.b.b.b.I.b.v.c.t.t.t.s.k.b.c.i.-.Z k j j k N k         ",
"      Z G G G G S S %.>.d.c.I.v.k.s.t.s.k.v.b.b.b.I.b.b.I.v.b.I.b.b.b.b.b.b.b.I.b.b.v.k.k.t.t.k.v.v.c.d.,.%.Z Z G G G G S       ",
"h h k G :.,.,.,.;.;.>.w.f.v.v.c.f.t.t.s.k.v.b.b.v.b.b.b.b.b.b.v.b.b.b.b.b.b.b.b.I.b.v.k.f.t.t.k.c.I.v.f.t.>.;.;.,.y.,.;.G k i h ",
"h h N G ,.d.k.f.a.w.w.s.k.v.v.c.f.t.t.s.k.b.b.I.I.I.b.I.N.b.b.I.I.b.b.b.I.b.b.I.I.b.v.k.f.t.t.f.c.v.c.k.t.t.w.t.s.f.d.,.G N j g ",
"g h k %.w.c.v.k.f.t.t.f.k.v.v.k.f.t.t.f.k.I.^.^.^.^.T.^.Y.Y.Y.^.^.^.^.T.^.I.^.^.Y.^.I.c.f.t.t.s.k.v.v.k.s.t.t.s.k.v.c.i.$.k h g ",
"g s C -.i.k.I.v.k.a.t.f.k.v.v.k.s.t.t.f.N.^.'.|.^.|.^.^.'.'.'.'.^.'.^.|.^.|.^.|.^.}.^.N.h.t.t.s.k.v.v.k.f.a.t.f.v.I.n.i.%.k j g ",
"g j k %.i.c.N.c.k.t.t.s.k.I.v.s.t.t.t.n.E.}.#X#X#XXXXXXX$X$XXXXX$XXX$XXXXX$X+XOX$X$X}.E.l.t.t.t.k.c.v.k.k.t.t.k.k.I.v.i.-.k j e ",
"g h N %.i.c.v.v.k.t.t.k.k.v.I.k.s.t.t.l.E.$X#X#X%X@X#X#X@X#X@X@X#X#X#X#X#X#X#X%X%X%X}./.n.f.t.f.k.I.I.k.s.t.t.k.k.I.c.w.%.C j g ",
"h h k G ,.k.c.k.s.t.t.s.l.T.E.I.v.s.l.n./.[.XX$X+X+X+X+XXX X XOXOXOXOXOXOXoX XOX+X+X}./.P.h.s.l.m.U.I.k.k.t.t.t.k.k.k.w.D k h g ",
"g j k D ,.a.f.f.t.t.t.l.I.E.).E.T.E.P.P.P.P.(.E./.].]./.(.!.!.!./.]._./.(.!.!.(./.].).E.E.E.P.E.).).Y.m.l.t.t.t.s.s.t.0.D j j h ",
"e h k D ;.t.s.t.t.0.t.l.R.[..XOXoX[./.P.z.g.g.h.n.n.n.z.h.g.g.h.l.P.l.l.h.j.j.g.l.P.P.P.(.].[.oX|.|.}.E.l.t.t.t.t.s.w.;.S k h h ",
"h j j S &.w.t.t.t.t.s.n.).|.#X%X@XOX[.P.g.e.3.9.w.a.a.i.q.3.;.q.w.j.a.r.0.=.3.q.w.a.s.P.(.oXOX%X@X#X|.(.P.s.t.t.t.a.w.;.S k h h ",
"h j j S 3.w.s.f.s.s.h.n.(.[. XOX#XOX].M.p.1.D <.>.0.w.>.&.D D &.0.0.0.0.1.$.$.&.=.0.t.n.(.[. XOX#XOXoX(.n.l.s.t.s.s.a.;.S k h h ",
"h h N %.r.h.P.m.P.m.P.P.P.~.~._.].].(.z.q.$.$.$.=.0.0.=.%.S D $.1.0.0.1.1.$.k $.1.0.t.l.n.P.!._.].].].(.E.P.P.m.P.m.f.e.P k j h ",
"h j k 3.x.!._.oX[.{./.P.z.g.g.h.n.n.z.a.3.$.D $.=.0.0.&.&.S D &.=.0.0.9.&.D D $.&.0.t.t.i.g.g.g.l.n.P.P.(.].].[.[.].!.g.4.N j g ",
"g h N 5.z._.OX%X%XOX[.P.g.q.3.q.r.a.a.q.1.$.G &.0.0.0.0.&.D D &.9.0.0.9.&.S $.&.9.0.0.0.9.3.3.9.w.t.s.P./.oX#X#X@XOX_.x.2.N h h ",
"w e j H x.!. X@X@XOX{.P.p.;.$.&.>.0.0.9.&.D D &.9.0.0.9.&.D D &.9.0.w.9.&.D D &.9.0.0.9.1.D D &.9.w.t.P.E.[. X#X#XOX].g.-.j e w ",
", 4 w f 5.z.!.].[._.~.x.q.$.D $.&.0.0.9.&.$.D &.9.0.0.9.1.D D &.9.0.w.9.&.D $.&.0.0.0.3.$.D D $.=.0.t.a.P.P.(.].[.].P.y.f w 4 , ",
"@ - , q f ,.g.n.P.n.l.a.5.$.D $.9.0.0.3.&.D D &.9.0.w.9.&.D D &.9.w.0.9.&.D $.&.9.0.0.9.$.D D &.=.0.t.t.a.i.g.z.n.n.d.*.u 3 - $ ",
"X O $ , u G 3.w.a.t.t.0.1.<.D &.9.0.0.9.&.D D &.9.w.0.9.&.D D &.9.w.w.9.&.D D &.0.0.w.9.1.D $.<.=.0.0.q.9.1.5.r.a.a.,.f 0 & o . ",
". . o = 9 a D &.q.0.0.9.&.D D &.9.0.0.9.&.D D &.9.w.w.9.&.D D &.9.0.0.9.&.D D &.=.0.0.9.&.D $.1.9.q.q.9.<.$.$.&.0.0.#.p : + . . ",
". . X & 8 s D &.9.0.0.9.&.D $.&.9.0.w.0.&.D D &.9.w.w.9.&.D $.&.9.w.0.9.&.$.D &.0.0.0.=.&.$.$.<.6.8.e.6.<.D D $.0.,.*.p ; + . . ",
". . X & 8 s D &.0.0.0.9.&.$.$.&.9.0.0.9.&.D D &.9.w.w.9.&.D D &.9.0.w.9.&.$.D &.9.0.0.9.&.D D <.7.B.V.6.P D D &.9.0.#.p ; + . . ",
". . o = w a $.&.0.w.0.;.&.$.$.&.9.w.w.9.&.D D &.9.w.w.9.&.$.D &.9.w.0.9.&.D D &.9.w.w.0.&.D P ! ` C.C.` P P D 1.0.0.#.p ; + . . ",
"o # % 4 e S W 3.q.9.9.3.$.D D <.9.w.w.9.&.D D &.9.0.w.9.&.D D &.9.w.w.9.&.D $.&.9.0.0.0.&.P P ^ C.S.S.C.` P <.1.0.0.&.p : + . . ",
"< 1 5 g K / u.u.8.4.4.2.D D D &.9.w.w.9.&.$.D &.9.w.w.9.&.D D &.9.0.w.9.&.D $.&.9.0.0.e.3.6.` C.S.G.G.D.C.` 6.5.e.0.&.s : + . . ",
"z z b T | J.K.J.B./ E F F D D &.0.0.0.9.&.D D &.9.w.w.9.&.D D &.9.0.0.9.&.D $.&.=.0.w.w.8.B.C.D.H.*X*XH.S.C.B.e.r.w.#.p : + X . ",
"' ' [ O.W.*XQ.D.X.T U V F S D &.9.0.w.9.&.D $.&.9.0.0.9.&.D D &.9.w.w.9.&.D D &.9.0.r.p.V.C.S.G.*X=X=X&XH.S.Z.V.p.r.%.p ; + . . ",
"X.o.O.F.&X*XW.@.} R n B N S $.&.0.0.w.9.&.D $.&.9.w.w.9.&.D D &.9.w.w.9.&.D D 1.3.q.e.u.C.o.@.H.*X=X=X&XG.@.o.A.p.p.:.p : + . . ",
"X.o.o.@.@.W.@.+.' m n b V S $.&.9.w.0.9.&.$.$.<.9.w.0.9.&.D D &.9.w.w.9.&.D D <.3.e.V.B.{ ..X.@.H.*X*XH.@.X.....V.u.4.s 3 + . . ",
"' ' ] ] [ } ] ' ) M M J N F D &.9.0.w.9.&.$.D 1.9.0.w.9.&.D D 1.9.w.0.9.&.D D P 7.B.B.{ _ _ [ X.@.G.H.@.X.' ' { Z.B./ c 3 + . . ",
"m m m Y Y Y Y m M M b J V F D &.0.0.0.9.&.D D &.9.w.w.9.&.D D &.9.0.0.9.&.D D ! B.C.o..._ Y Y _ X.@.@.X.' Y Y _ | | T c 1 # . . ",
"z z z v b b M n J n J J N S D 1.9.0.w.9.&.D D &.9.0.w.9.&.D D &.9.w.w.0.&.D S ! ` o.o.[ _ J I ) ' ....' Y I R _ o.X.( l 1 # . . ",
"5 6 7 r c b B B B J J V S S D 1.9.0.w.9.&.D D &.9.w.w.9.&.D D &.9.0.0.=.&.D P Q ` o.o.[ _ J J I T ' _ T I J K _ o.o.' l 1 # . . ",
"% * < 8 y C N V V V V N S S $.&.9.w.0.9.&.D D &.9.0.w.9.1.D D &.9.0.0.9.&.$.D ` ..o.o.` _ L V V I Y Y U J V L Q ..o.' l 1 # . . ",
"O o @ ; y k F G F D D S S D D &.0.w.w.9.&.D D &.9.w.w.9.&.D D &.9.w.0.>.&.D D ! ` S.o...` P L V J I I J V L L ^ ..X.' l 1 # . . ",
". . + = 9 k D D $.$.D D D D D &.9.0.w.9.&.D D &.9.w.0.9.&.D D &.9.w.w.9.&.D G Q ` ` o.` Q P L V J I I U K P P ! { ..) l 1 # . . ",
". . X & 8 k k $.$.&.&.$.D D D &.9.0.w.9.&.$.D &.9.w.0.9.&.D D &.9.w.0.0.&.$.D E _ _ _ ` ` ! ! Q _ T _ T Q ! ! ` { [ M d 2 o . . ",
". . X & 8 a D &.=.=.9.&.&.D D &.9.w.0.9.&.D D &.9.0.w.9.&.D D &.9.w.0.>.1.D S L U Y _ _ _ ` { { { [ [ ..{ { { { [ Y M 7 2 o . . ",
". . + = 9 k D &.0.0.0.&.$.D D &.9.w.w.9.&.D D &.9.0.w.9.&.D $.&.9.0.0.0.&.$.S V K I Y ) ....o.o.o.o.X.o.o.o.o.[ ' R v 5 % o . . ",
"o + $ 4 i N 2.5.q.q.9.;.%.D $.&.9.0.0.9.&.D $.&.9.w.w.9.&.D D &.9.0.0.9.&.$.S F K U R T ' X.X.o.@.X.o.o.o.o.o.[ T R v 6 2 o . . ",
"1 1 6 t B ! V.u.7.3.4.2.G D D &.9.w.w.9.&.D D 1.9.w.0.9.&.D D &.9.w.0.0.&.$.S F F E / Q _ [ ] ]  . . . .} ' [ [ ~ / C y * + . . ",
"l z b T | J.K.J.B./ E L F D D 1.0.0.0.9.&.D D &.9.0.w.9.&.D D &.9.0.w.0.&.D D D G 2.4./ ~ T ' Y ) ) ) ) ) ) ( ( ^ 4.A u > o . . ",
") ' [ @.H.*XQ.G.| T U V F S D &.9.0.w.9.&.D D &.9.w.0.9.1.D D &.9.0.0.9.&.$.D &.3.9.5.4.E R m m n m m m M I R / u.5.*.p > + . . ",
"X.o.@.F.H.*XQ.@.} Y b J V S D &.9.0.w.9.&.D D &.9.w.w.9.&.D D &.9.w.0.9.&.$.$.&.,.w.e.5.E R n M n b n b M b U W 5.,.#.p : + . . ",
"X.o.o.@.G.G.F.+.' m M J N S D &.0.w.w.9.&.D D &.9.0.w.9.&.D D &.9.w.w.9.&.$.$.&.>.w.w.;.H V B J J B J B J B K 6.q.w.#.p : + . . ",
"' ' } } X.X.] ' m m b B V S G &.0.0.0.9.&.D D &.9.w.0.9.&.D D &.9.0.0.9.&.$.$.&.9.0.0.9.2.F F N N N N N V V F 2.q.,.#.p : + . . ",
"m m m m m Y m m M M n B V G $.#.9.0.0.9.&.D D &.9.w.w.9.&.D D &.9.w.0.9.&.D $.&.0.w.0.9.&.G S S F F F S S S D 3.0.0.#.p : + . . ",
"l z z v b M b I M n J B F S D &.9.0.0.9.&.D D &.9.0.w.9.&.D D 1.9.w.w.3.&.$.D &.9.w.0.9.1.D S S D D D D D D $.1.0.0.*.p : + . . ",
"5 5 7 r h b B J J J B V F S $.&.0.w.w.9.&.D D 1.9.w.w.9.&.D D &.9.w.w.9.&.D D &.9.w.w.9.&.D D D $.<.&.$.D D $.&.0.0.#.p : + . . ",
"% % 2 4 e j F V V V N S S D D $.9.0.0.9.&.D D &.9.w.w.9.&.D D &.9.w.w.9.&.D D &.9.w.w.9.&.D D $.&.1.=.&.$.D $.1.0.0.#.p : + X . ",
"O o $ 3 w k S D D F S D S D $.&.0.w.w.9.&.D D &.9.0.0.9.&.D D &.9.w.w.9.&.D D &.9.w.w.9.&.D D &.9.0.0.9.&.D D 3.0.w.#.p : + . . ",
". . + = 9 k k $.D S $.$.S D $.&.9.0.0.9.&.D D 1.9.w.w.9.&.D D &.9.0.w.9.&.D D &.9.w.0.9.&.D D &.9.0.0.9.&.D $.1.0.0.#.p : + . . ",
". . X & 9 k $.D D D k $.k D D &.9.w.w.9.&.D D &.9.0.w.9.&.D D &.9.w.w.9.&.$.D &.9.0.0.9.&.$.D &.0.w.w.9.&.$.$.1.0.0.#.p : + . . "
};
