/* XPM */
static char *_7614ccff5504c31abd8f331ba3551d42wIVo2i6nWu4ydDL[] = {
/* columns rows colors chars-per-pixel */
"64 64 47 1 ",
"  c #753815",
". c #763916",
"X c #773A17",
"o c #783A17",
"O c #783B17",
"+ c #783B18",
"@ c #793B18",
"# c #7A3C19",
"$ c #7B3D1A",
"% c #7C3E1B",
"& c #7D401C",
"* c #7E401C",
"= c #7F411D",
"- c #80421F",
"; c #81431F",
": c #824421",
"> c #834421",
", c #854623",
"< c #874925",
"1 c #884925",
"2 c #8A4B27",
"3 c #8B4C28",
"4 c #8C4C28",
"5 c #8D4D2A",
"6 c #8E4F2B",
"7 c #8F502C",
"8 c #90512C",
"9 c #90512D",
"0 c #93532E",
"q c #93532F",
"w c #945430",
"e c #955531",
"r c #975632",
"t c #975733",
"y c #985833",
"u c #9B5B36",
"i c #9D5C37",
"p c #9D5C38",
"a c #9E5D39",
"s c #A15F3B",
"d c #A1603B",
"f c #A3613C",
"g c #A4633E",
"h c #A5633E",
"j c #A6643F",
"k c #A66540",
"l c #A86641",
/* pixels */
"lllllllllllllllllllllllllllllllllllllllllllllllu-..$0lllllllllll",
"lllllllllllllllllllllllllllllllllllllllllllljs,...2hllllllllllll",
"lllllllllllllllllllllllllllllllllllllllllllk9o..:sllllllllllllll",
"llllllllllllllllllllllllllllllllllllllllllw$..*yjlllllllllllllll",
"lllllllllllllllllllllllllllllllllllllllld-..$9klllllllllllllllll",
"lllllllllllllllllllllllllllllllllllllld2..o2jlllllllllllllllllll",
"lllllllllllllllllllllllllllllllllllll9$..:aljkllllllllllllllllll",
"hllllllllllllllllllllllllllllllllllw=..oyjllllllllllllllllllllll",
",uhlllllllllllllllllllllllllllkjlf,...7kllllllllllllllllllllllll",
".o2skllllllllllllllllllllllllllj5...<dklllllllllllllllllllllllll",
"=. $9hklllllllllllllllllllllllq$..=ullllllllllllllllllllllllllll",
"l7$ .-uhllllllllllllllllllllu-..$qjlllllllllllllllllllllllllllll",
"llh2@..,ikllllllllllllllljj,..O3jjllllllllllllllllllllllllllllll",
"lllla,..@5fklllllllllllkj5...,djllllllllllllllllllllllllllllllll",
"llllllw=..$whlllllllllly$..=ujllllllllllllllllllllllllllllllllll",
"llllllll9@..:uhlllllli-..$7jllllllllllllllllllllllllllllllllllll",
"lllllllllj2..o<ajllj<...5jjlllllllllllllllllllllllllllllllllllll",
"llllllllllji:..@9d9o..;allllllllllllllllllllllllllllllllllllllll",
"lllllllllllljr=.....$yllllllllllllllllllllllllllllllllllllllllll",
"llllllllllllllu$...5jlllllllllllllllllllllllllllllllllllllllllll",
"llllllllllllj2o..2dlllllllllllllllllllllllllllllllllllllllllllll",
"lllllllllkj9$..-iljlllllllllllllllllllllllllllllllllllllllllllll",
"llllllllji=..*wljkllllllllllllllllllllllllllllllllllllllllllllll",
"llllllks,..$5dllllllllllllllllllllllllllllllllllllllllllllllllll",
"lllllj8o..,dllllllllllllllllllllllllllllllllllllllllllllllllllll",
"llllw$..*ujjlllllllllllllllllllllllllllllllllllllllllllllllllljy",
"lka-..$9llllllllllllllllllllllllllllllllllllllllllllllllllllka-.",
"s2o.o2hllllllllllllllllllllllllllllllllllllllllllllllllllllj2..o",
"$..:allllllllllllllllllllllllllllllllllllllllllllllllllljj7O..-a",
".@ylllllllllllllllllllllllllllllllllllllllllllllllllllllu*..$ylj",
"9jlllllllllllllllllllllllllllllllllllllllllllllllllljka:..$7jlll",
"llllllllllllllllllllllllllllllllllllllllllllllllllllj5...<jljlll",
"llllllllllllllllllllllllllllllllllllllllllllllllllj9O..-ijllllll",
"llllllllllllllllllllllllllllllllllllllllllllllllli-..$rjllllllll",
"llllllllllllllllllllllllllllllllllllllllllllllld,o.o5jllllllllll",
"llllllllllllllllllllllllllllllllllllllllllllll5O..,dllllllllllll",
"llllllllllllllllllllllllllllllllllllllllllljq$...4dlllllllllllll",
"llllllllllllllllllllllllllllllllllllllllkjd-..$$..;ijlllllllllll",
"lllllllllllllllllllllllllllllllllllllllld<..O5jd2$..2ijlllllllll",
"lllllllllllllllllllllllllllllllllllllll9$..:ajllji;o.o7dklllllll",
"lllllllllllllllllllllllllllllllllllljr-..$ujllllllkr=..$wjllllll",
"llllllllllllllllllllllllllllllllllld;..o8jkjllllllllh9@..,ukllll",
"llllllllllllllllllllllllllllllllld2O..<hllllllllllllklh<..O<flll",
"llllllllllllllllllllllllllllllllq$..:alllllllllllllllllla=..$7jk",
"lllllllllllllllllllllllllllllly=..$wjkllllllllllllllllllll0$..=w",
"llllllllllllllllllllllllllllf,..O5jllllllllllllllllllllllllj3+..",
"llllllllllllllllllllllllllj3o..,dlllllllllllllllllllllllllllls,.",
"lllllllllllllllllllllllllw$..=illlllllllllllllllllllllllllllllku",
"llllllllllllllllllllllji=..$wjllllllllllllllllllllllllllllllllll",
"llllllllllllllllllllkj<$..2jllllllllllllllllllllllllllllllllllll",
"lllllllllllllllllljj5$..<aklllllllllllllllllllllllllllllllllllll",
"llllllllllllllllkju*..$yjlllllllllllllllllllllllllllllllllllllll",
"lllllllllllllllla,..$9jlklllllllllllllllllllllllllllllllllllllll",
"llllllllllllllj2o..2dlllllllllllllllllllllllllllllllllllllllllll",
"llllllllllllj7$..-alllllllllllllllllllllllllllllllllllllllllllll",
"lllllllllllu=..*rlklllllllllllllllllllllllllllllllllllllllllllll",
"lllllllkld,..O7dllllllllllllllllllllllllllllllllllllllllllllllll",
"lllllllj5o..<dllllllllllllllllllllllllllllllllllllllllllllllllll",
"llllljq$..-illllllllllllllllllllllllllllllllllllllllllllllllllll",
"llkja,..$wjkllllllllllllllllllllllllllllllllllllllllllllllllllkh",
"lld2..$5hllllllllllllllllllllllllllllllllllllllllllllllllllllh5o",
"l9$..,akklllllllllllllllllllllllllllllllllllllllllllllllllljr$..",
"*..*ijlllllllllllllllllllllllllllllllllllllllllllllllllklla=..$9",
".$9jllllllllllllllllllllllllllllllllllllllllllllllllllljj2...4jl"
};
