/* XPM */
static char *fcb87ee9aa1e4c5d8223a908fe7f6dd2JoJdJHEUAroOz10F[] = {
/* columns rows colors chars-per-pixel */
"64 64 189 2 ",
"   c #393F41",
".  c #3C4346",
"X  c #3F4649",
"o  c #3F545C",
"O  c #404547",
"+  c #404649",
"@  c #434A4D",
"#  c #454E51",
"$  c #494F52",
"%  c #465155",
"&  c #4A5255",
"*  c #44555B",
"=  c #4B565A",
"-  c #4C595E",
";  c #50595D",
":  c #435761",
">  c #455B64",
",  c #4B5C63",
"<  c #465F6A",
"1  c #485F69",
"2  c #525E62",
"3  c #4E6067",
"4  c #45616E",
"5  c #4D636C",
"6  c #536166",
"7  c #5A6265",
"8  c #54646B",
"9  c #5A666B",
"0  c #5C696D",
"q  c #4C6671",
"w  c #4D6974",
"e  c #526770",
"r  c #546B73",
"t  c #5C6C73",
"y  c #536E79",
"u  c #5B6F78",
"i  c #567077",
"p  c #597077",
"a  c #55717B",
"s  c #5B737C",
"d  c #5D797F",
"f  c #62696D",
"g  c #626E73",
"h  c #647276",
"j  c #697377",
"k  c #63747B",
"l  c #6A767B",
"z  c #66787F",
"x  c #6C797E",
"c  c #747D7F",
"v  c #5A7681",
"b  c #5E7984",
"n  c #647B84",
"m  c #6B7D84",
"M  c #637E89",
"N  c #697F89",
"B  c #737E83",
"V  c #6E8087",
"C  c #66818C",
"Z  c #6C838B",
"A  c #738186",
"S  c #788386",
"D  c #74848B",
"F  c #7A868B",
"G  c #72898F",
"H  c #7A898E",
"J  c #6C8691",
"K  c #6E8893",
"L  c #6F8D99",
"P  c #718790",
"I  c #748B94",
"U  c #7B8C93",
"Y  c #748E99",
"T  c #798F98",
"R  c #7A9095",
"E  c #77919C",
"W  c #7B939C",
"Q  c #7D97A1",
"!  c #7E99A4",
"~  c #828E93",
"^  c #849196",
"/  c #83959C",
"(  c #8A969B",
")  c #84989E",
"_  c #8C9A9F",
"`  c #919C9F",
"'  c #8297A0",
"]  c #849BA4",
"[  c #8A9DA3",
"{  c #859EA9",
"}  c #899FA9",
"|  c #919EA4",
" . c #8EA0A6",
".. c #86A0AA",
"X. c #8CA3AC",
"o. c #91A1A7",
"O. c #93A5AB",
"+. c #99A6AB",
"@. c #97A8AE",
"#. c #9CA9AE",
"$. c #8EA7B0",
"%. c #8FA9B2",
"&. c #90A6B0",
"*. c #94ABB3",
"=. c #9AADB4",
"-. c #96AFB8",
";. c #99AFB8",
":. c #9BB0B7",
">. c #97B1B9",
",. c #9CB2BA",
"<. c #9EB8BF",
"1. c #A1AEB3",
"2. c #A2B1B6",
"3. c #A2B5BD",
"4. c #A9B6BC",
"5. c #A4B8BF",
"6. c #AAB9BF",
"7. c #9FB6C0",
"8. c #9EB8C2",
"9. c #A1B7C1",
"0. c #A5BAC2",
"q. c #ABBDC4",
"w. c #A7BFC8",
"e. c #ABBFC8",
"r. c #B1BFC5",
"t. c #AEC0C7",
"y. c #AEC2C9",
"u. c #B2C1C6",
"i. c #B3C6CD",
"p. c #B2C6CD",
"a. c #B2C5CC",
"s. c #B4C6CD",
"d. c #B6C7CD",
"f. c #B4C7CE",
"g. c #B7C7CE",
"h. c #B4C5CD",
"j. c #B3C6CC",
"k. c #B8C7CC",
"l. c #B7C8CF",
"z. c #B6C8CF",
"x. c #B5C8CF",
"c. c #B6C8CF",
"v. c #B8C8CF",
"b. c #B8C9CF",
"n. c #B4C7D0",
"m. c #B7C9D0",
"M. c #B6C9D1",
"N. c #B7C9D1",
"B. c #B8C9D0",
"V. c #B9CAD1",
"C. c #B9CBD2",
"Z. c #BACAD1",
"A. c #BBCCD3",
"S. c #B9CCD3",
"D. c #BCCCD3",
"F. c #BECDD3",
"G. c #BACDD4",
"H. c #BDCDD4",
"J. c #BDCED5",
"K. c #BFCFD5",
"L. c #BFCFD6",
"P. c #BBCCD3",
"I. c #BECFD8",
"U. c #BFD0D7",
"Y. c #BFD0D7",
"T. c #BED1D8",
"R. c #C0CFD6",
"E. c #C0CFD5",
"W. c #C1D0D7",
"Q. c #C1D0D7",
"!. c #C2D1D8",
"~. c #C3D2D9",
"^. c #C1D3DA",
"/. c #C4D3DA",
"(. c #C4D2D9",
"). c #C3D3DA",
"_. c #C9D7DD",
"`. c #C6D9DF",
"'. c #CBD9DF",
"]. c #CAD9DF",
"[. c #C7D9E0",
"{. c #CBDBE1",
"}. c #D0DEE4",
"|. c #CEE0E7",
" X c #CFE0E8",
".X c #D3E1E6",
"XX c #D7E6EC",
"oX c #D8E7EB",
"OX c #D9E9EE",
/* pixels */
"=.a.V.a.d.a.a.d.a.a.l.l.a.d.a.^.( W 0.L.^.U.V.a.a.-.7 =.L.l.V.D.R.^.^././.,.X.Z 6.4.a.L.V.V.V.V.m.=.h X.q.t.a.a.L.q.2.d.v.V.t.I ",
"*.*.V.m.a.a.t.d.d.a.d.d.a.a.a.^.D Z %.3.L.L.V.d.a.X.m l.V.m.v.d.V.l.V.L.R.3.X.m V.L.V.V.V.V.V.l.V.U.Z ,.t.y.a.V.L.] W [ =.s.d.J ",
"*.*.=.d.A.a.a.a.a.a.d.a.a.a.V.0.t n *.*.<.L.d.a.y.} Z a.D.V.l.l.l.l.s.l.V.^.q.t 5.A.l.V.V.V.L.A.L.t.k a.a.y.a.D.=.[  .[ ) ) O.J ",
"*.*.*.:.y.a.a.d.t.a.d.a.l.y.3.! 8 h *.*.%.e.A.a.y.' n V./.^.L.l.d.d.d.d.l.d.m.n X.U.l.m.V.A.3.3.D.y.t 0.a.a.a.=.[  . .[ [ [ ] Z ",
"} *.*.*.*.*.:.e.q.y.x.d.q.*.=.Y 8 h *.*.*.0.V.a.a.I t Y./.^./.^.L.D.l.d.l.d.l.V  .L.d.V.V.3.O.*.e.S.9 o.d.q.2.[  .[ [ [ [  .] m ",
"Z =.*.*.*.*.*.*.0.d.y.,.*.*.,.J 8 h -.*.*.<.l.l.e.z 6 m./.^././.^.^.Q.v.s.d.S.m 3.^.v.t.3.=.,.*.=.S.h m A.a.3. .o.o. .o. .o.) n ",
"3 ..,.*.O.=.*.*.=.3.,.,.,.=.X.C 2 6 ..,.,.,.a.e.E , 2 a.{.^.Q./._.'.'.'./.V.^.D ) <.X.Q E C J { *.a.x 6 <.<.X.I I I I I Z C n 6 ",
"$ p X.X.X.X.X.X.{ Q E K M y > * + + 1 k Z Z M s 1 X & ] { Y Y E ' *.,.,.*.] Y t Z v 1 3 5 1 : w ! -.z + , 8 5 a v v y w r 3 % & ",
"$ @ h I J s 1 : > * * * # % 7 x ~ ( +.1.2.:.O._ ~ F x t , - - 1 r 5 r r p n n 9 = + $ & & $ & & 8 t 9 9 h k z t 2 , Z R G [ =.I ",
"; @.V.L.L.s.=.j O A s.u.6.q.V.).^.^.Y.U.U.L.^.^.^.^.L.).=.@ f 2.v.g.v.D.L.Q.).Q.q.H = @ - n R I P I Q *.>.<.e.q.( + =.`.S.S.q.W ",
") L.V.U.U.^./.{.^ V /.A.L.S.V.d.d.v.d.v.l.l.v.d.d.l.d.'.*.- q.{.V.d.d.d.a.d.l.V./.'.e.0 u *.*.*.*.*.X.t.l.V.V.d.Y.B =.L.d.,.*.N ",
",.d.a.L.L.Q.L.U./.A 0.V.d.l.V.V.V.V.V.V.V.L.D.L.L.V.V.U.W 2 *.V.0.q.e.y.e.q.e.e.e.0.^.D Z ,.*.*.*.*.0.D.l.d.a.y.Y.@.3.^.5.*.Q > ",
",.V.a.U.U.L.L.L.).m E V.V.V.V.V.V.V.V.V.L.e.=.,.y.V.V.L.{ , X.L.q.q.a.d.d.a.y.e.y.q.V.n I ,.*.*.*.,.^.^.L.L.L.L.^.2.q.L.5.=.I * ",
"*.l.d.L.U.L.L./.^.z I m.V.l.l.V.l.V.D.d.,.&.*.*.*.q.a.L.0.8 W V.q.t.d.a.a.a.d.a.y.a.a.n W =.*.*.3.L.U.L.L.L.L.L.^.,.a.A.v.3.K : ",
"$.a.V.L.L.U.Q.Q.S.z [ ^.v.l.d.l.a.t.0.=.*.=.=.*.*.*.0.d.A.h I e.e.y.a.d.l.a.d.d.a.V.e.n W e.a.V.U.A.L.U.L.U.L.L.^.[ q.A.V.d.W 1 ",
"..a.A.L.L.Q.m.t.9.h [ S.d.V.d.0.=.*.X.X.Q Q { X.*.*.*.0.U.m Z <.q.a.d.a.l.A.a.a.a.A.3.s ' V.a.d.a.d.l.A.Q.L.L.^.Y.D 3.L.l.V.} 1 ",
"W ,.v./.L.A.a.d.9.t Z ! W K n a a y w 4 < 4 q w C X.%.,.w.G Z 9.t.a.a.a.L.0.s.V.d.m.*.r I a.m.l.d.l.d.d.U.Q.L.Q.m.9 #.Y.d.A.*.> ",
"m X.=.V.U.V.d.a.,.t t I Z k z m A D A z 8 - & - * s Z N n t I e.q.a.a.Q.q.R [ =.t.^.*.8 r ! 9.3.3.e.y.3.a./.A./.2.+ ( ^.d.V.0.8 ",
"k %.*.=.D.l.a.a.,.2 U s.a.L./.{.{.{.'._.R.[ - W =. .I k m h ] L.e.a.V.D. .[ [ ) ) =.X.8 @ 1 n I E ] ..} ,.^./.^.m . ( {.m.Y.y.Z ",
"t X.*.*.0.L.a.y.*.2 q.Y.V.V.A.L.^.^.^.^.;.$.k { y.A.U.m.`.a.[ S.q.d.a.@.[  . . .[ ) W 6 7 l h m V t s Z Z Z ' D & @ H 3.m z k 8 ",
"9 $.=.*.,.V.a.a.] k V.l.V.l.d.l.l.L.^.L.&.X.t E *.,.a.V.V.a.U d.e.y.=.[  .[ [ [ [  .I m Q.`.^.Q./.3.2 % U @.*.2.q.a.u.r.4.1.[ 0 ",
"t $.*.*.<.d.a.a.T Z S.l.l.l.d.v.d.d.V.L.L.*.7 5 X.*.=.l.V.D.D 5.t.q.O. .o.[ [  .o. .G T m.0.e.q.y.`.:.h `.U.L.^.^./././.{.I.,.} ",
"8 X.,.*.*.a.V.<.h m m.L.A.l.V.d.V.0.q.V.L.e.8 * Y ,.X.q.V.^.A [ S.q.O.[ [ [ [ ) R R n D V.q.e.e.e.y.=. .L.d.l.d.d.d.v.V.^.a.&.Q ",
"& M X.*.*.=.*.C % Z U./.^.L.d.d.d.d.d.l.d.a.h * K =.,.V.l.^.~ t W K b n d s s a a i & V m.q.q.q.e.d.=.X.L.V.l.g.v.l.d.d.m.L.L.{ ",
"$ # 1 r a s b z 2 m ^.^.^./.Q.V.l.V.V.l.d.l.x : Y ,.d.V.d.^.^   $ - 8 p v s p r 2 & + n *.,.t.t.e.l. .{ /.^.L.V.d.d.d.d.V.d.A.,.",
"9 =. .' O.e.a.0.Z h ^./.^.^././.^.V.d.d.d.a.k < ] q.A.V.l.^.x h 2.=.5.q.s.d.s.u.4.o.g k *.*.*.e.q.d.U [ {.^./.^.D.V.l.d.l.l.v.0.",
"H [.^.^.U.d.3.,.Z t V./.Q.^.^.^.^./.v.d.d.S.h > X.d.v.V.V.L.x 0.).L.L.D.L.L.Q./.V.,.I I <.*.*.5.q.y.z ) {.Q.^.^./.^.Q.V.d.d.v.5.",
"[ L.d.V.q.=.*...p 8 a.{._.'.'._./././.L.V./.l > ,.V.l.V.A.u.n y.L.D.v.d.d.d.s.l.V.L.I  .y.=.3.0.q.y.t D /./._._./././.^.V.d.D.d.",
"=.L.V.d.*.*.*.b % 8 y.e.$.X.*.0.V././.L.9.*.0 r e.v.l.d.L.=.6 n./.^.Q.D.V.V.d.d.d.A. .[ a.q.q.e.0.q.9 Z `.a.0.0.d.R._.{.{.L.q.<.",
"6.A.D.a.*.*.X.w = = p r w y a v C K M b b v 8 I y.).m.S./.2.= y.{.'.{.{.'./.^.D.v.^.@.U l.e.q.0.t.0.7 9 Z b v b v n K I J Z M b ",
"s.V.V.L.e.*. .w = 2 B ~ ( ( D 8 * 2 k m x 7 $ p H U Z ) t.O.@ X.0.*.*.;.0.a.A.m.y.0.) n y.0.0.*.*.X.- @ $ & = = k m n V D m 7 $ ",
"q.V.V.V.L.0.*.v * +.[.).{.{.,.& j d././.^.s.o.; . + @ + - 9 0 m Z n k k u r 8 6 > > % @ t Z I K Z , + & & & @ D /.D.L.U.^./.s.~ ",
"=.L.l.V.V.d.:.M 1 0.V.a.s.D.,.8 3.S.V.L.L.^.{.L.g o.q.2.0.d.A.D.L.L.D.v.a.a.t = m F ^ _ | 2.e.2.( A g ; = ; @ / S.0.y.t.q.q.a.m.",
"_ ^.d.V.l.v.0.C > e./.d.s.V.a.m y.a.V.U.L.^.V.{.3.] ^.L.A.V.V.V.V.d.a.V.L.T.t D |.^.^.^.^.L.D.L.^.).L.a.q.v.[ Z m.q.d.d.a.a.a.3.",
"j L.l.V.l.d.V.Y * q./.L.V.d.t.I y.s.m.U.L.L.L./.0.n d.V.V.A.V.V.e.,.*.,.t.S.A k A.V.v.V.V.V.l.l.l.d.l.V.V./.[ k e.y.a.l.m.a.m.,.",
"2 s.l.V.D.V.A...5 5.}._.'./.v.T 0.m.V.U.U.U.L.'.,.A m.y.0.=.X.{ E R ' X.,.S.o.n m.V.d.5.,.q.D.V.V.m.V.l.V.y.h t 0.a.a.l.0.d.S.X.",
"7 ^./.m.0.y.V.{ n / X.} 3.0.X.Z 5.V.V.L.L.L.^.}.3.t k t 8 8 r t r r 8 u Z I m ] U.t.,.*.*.*.3.d.V.v.V.d.V.y.8 x a.y.L.2./  .6.} ",
"; [ U h 8 t h t 8 - - , > * # t <.d.V.U.L.^.m.y.*.- F 2.5.a.V.R.Q.(.E.u.4.l . =.V.:.=.*.*.X.X.*.3.q.d.D.V.^.h h S.y.5.[  .[ ] I ",
"& $ ` 6.u.t.q.t.a.s.s.u.r.u.[ t -.v.L.L.U.V.a.y.} 9 S.^.L.L.^././.^././.0...2 X.,.X.Q a q q y v M M J Q X.%.h 2 a.t.O. . .o.O.I ",
"+ B XXU.A.L.A.V.V.V.V.A.S._.{.Z Q *.D.^.L.l.a.a.' D L.d.l.d.l.V.V.L./.a.} { - 6 n T Z 0 2 % @ % * & % % , p 6 @  .3.) W W R I k ",
"+ 1.^.y.a.a.a.a.a.a.a.a.a.d.^.m I *.,.V.L.m.d.a.Q [ L.d.V.d.d.l.d.d.V.Q.y.] - ( d.D.Q.^.V.4.~ = & @ + % = - 2 2 8 r r a y 5 - $ ",
"f R.a.a.a.a.d.a.d.d.d.a.l.a.Y.A Z ,.*.5.L.a.a.e.W W L.V.V.l.V.l.d.s.V.V./. .m S.d.V.U.L.^.^. X=.@ c 1.t.t.y.y.y.t.t.a.t.0.2.U = ",
"[ a.V.a.a.a.a.d.a.a.l.a.a.a./.U n >.*.*.d.V.a.e.I W ^.^.^.V.s.d.d.d.V.d.V.,.I y.d.V.U.L.L.L.'.,.= (.OX'./.^.^.^.^./././.'..X[.x ",
"X.*.5.d.V.d.a.d.a.a.a.a.l.d.y.h m ,.*.O.e.m.a.y.m W {.^.^.^.D.v.l.d.d.d.V.0.I <.A.A.L.L.L.V.A.X.l {.a.y.a.d.a.a.a.a.a.a.d.D.{.W ",
"{ =.*.=.0.0.e.y.t.d.d.a.0.<.Q 8 Z >.*.*.e.l.d.e.t U {.^.^././.^.L.V.l.d.v.5.z X.0.L.^.L.m.a.y.R ( {.a.d.a.d.d.a.d.d.a.d.a.l.'.W ",
"s *.=.*.*.*.*.,.a.a.e.3.,.<.L 5 m ,.*.*.3.l.d.*., A /.^.^.^.^.^./.Q.d.d.V.t.8 R *.=.a.L.d.d.y.I 2.).a.d.a.a.a.d.a.l.a.a.V.l.).W ",
"& n *.*.*.*.X.{ ' W I Z M p 5 $ 8 { ,.,.,.q.*.n $ n ^./._._././.^./.L.V.V.L.2 P ,.*.*.d.l.a.q.I u.m.a.a.a.d.d.a.a.d.a.a.l.d.Y.) ",
"@ . % > - > 8 t h m D D x g 0 7 2 r s C J C b 8 @ n Y.d.3.3.y.L./._.'.^.q.,.2 I <.=.*.t.V.V.,.) /.a.a.d.a.a.a.d.d.a.d.d.a.a.L.@.",
"m _ ~ H ( 1.a.v.L.^.^./.^.^.L.m.a.3.=.h % = & $ @ 9 I b v v b C Q X.] Y C b $ t { X.X.*.q.,.n [ y.V.a.a.a.a.d.d.a.d.l.a.d.a.L.=.",
"0.{././.).U.V.V.V.d.d.d.d.d.l.V.V.L.|.W + $ = ; ; ; 2 9 t h p 5 * * * r k k 0 0 k m Z Z k 3 = [ *.a.V.a.a.t.s.l.a.d.d.a.a.a.Y.[ ",
") L.d.d.d.l.V.V.V.V.V.l.L.L.L.V.d.L.m.n l 6.t.q.q.a.a.y.a.a.q.2._ g A ^.D.V.L.L.A.V.V.v./.( @  .*.*.u.L.d.d.a.a.a.d.a.a.d.m.0.n ",
"t 0.V.m.V.V.V.V.V.V.V.L.a.0.a.A.l.L.a.n I Y.a.e.a.d.a.y.y.y.a.a./.[ ) {.a.a.a.a.a.a.d.a.m.^.2 ] ,.*.*.0.a.a.l.t.a.d.a.l.y.3.} s ",
"6 X.D.l.V.V.l.l.V.D.V.0.*.*.*.3.a.l.U.R k ,.t.e.a.a.l.A.m.V.d.a.m.Z O.L.a.a.d.d.d.a.a.a.a.).( Z ,.*.*.*.*.*.0.q.t.l.d.e.*.;.W p ",
"2 ,.V.l.d.d.V.d.d.y.,.*.*.*.*.*.3.y.U.=.k ,.q.y.a.V.V.=.=.3.0.d.e.s ) m.a.d.d.a.a.d.d.m.d.3.O.n *.*.*.*.*.*.O.3.a.t.<.*.*.3.I r ",
"2 a.Q.A.V.V.q.0.,.=.*.*.*.=.=.=.*.,.l.0.k V.q.a.a.6.O.[ [ [ [  . .k p -.0.y.l.l.t.e.3.3.*.*.X.> W ,.*.O.=.*.*.:.<.,.,.,.*.X.M 8 ",
"2 } *.-.*.{ E I I C v a a b J ..*.*.e.y.7 [ m.y.:.[  . . . .[ [ W t 3 K ' } *.,.*.*.*.*.,.%.t $ 8 { *.$.X.X.} Q E K C v y 1 > & ",
"2 Y Z y 1 1 5 q q 5 1 > * o o y Q ! { ! 9 $ h z s s p r r 8 5 , % @ @ # % , 6 8 8 8 8 8 8 = X @ + = r 3 < < > * > > > * # @ @ & ",
"= - S +.3.3.5.5.0.0.6.5.2.=.O.n 2 2 2 t g 7 & . + & h F F B B F ( +.=.3.6.q.u.u.q.3.2.=.+.O.| [ F & @ c 2.5.6.q.u.d.v.v.6.^ 2 @ ",
"@ 2 .XoX{.'././././.'.{.{.{.XXS.; 7 5.V.Q.L.s.=.j +  .{.^.^.^.^.^.Y.L.L.L.A.A.A.U.^.^.^.^.Y.Y.}.8., x {./.L.A.A.V.V.V.D./.{.l.U ",
"+ S {.y.y.a.d.y.a.a.y.a.a.d.Q.{.z @.Y.V.U.U.^./.{.^ 8 *.d.d.d.d.d.l.l.l.V.V.V.V.y.0.0.a.l.l.l.L.{ 6 n m.t.0.q.q.q.q.q.q.e.e.d.d.",
"+ +.{.a.d.d.l.d.a.d.d.d.d.a.A.^.I 3.d.d.U.L.U.L.^.^.t Q A.V.V.l.V.V.V.V.V.d.e.,.*.*.*.*.,.q.a.V.a.h t a.d.q.a.d.d.a.y.q.q.e.a.3.",
"& u.L.a.d.a.a.a.a.d.l.a.d.l.V.L.I <.V.d.U.U.L.L.^.m.t :.V.d.m.d.y.0.,.=.*.X.{ ] { X.X.*.=.=.3.t././ t q.d.q.a.a.a.d.d.d.a.e.V.*.",
"0 Q.a.d.a.a.d.a.a.a.d.a.a.m.d.L.W *.V.V.L.L.L.Q.'.a.t Z K J n p r e e r 5 1 > < < 1 3 5 n W W { X.T t *.t.e.a.a.l.d.a.l.a.d.m...",
"^ ).a.d.a.a.a.a.d.d.a.d.a.a.a.U.) X.l.V.U.L.Q.V.a.7.9 0 _ [ o.=.2.3.4.3.#.| B & & & & 7 x ~ A 9 - & t X.q.t.a.a.a.V.d.a.a.d.d.Q "
};
