/* XPM */
static char *_0c0d347d7b44c8ac605cc5520823258C8SzVJspM3tdWigF[] = {
/* columns rows colors chars-per-pixel */
"64 64 168 2 ",
"   c None",
".  c #720D0D",
"X  c #761212",
"o  c #7C1C1C",
"O  c #7D2824",
"+  c #7E352B",
"@  c #275476",
"#  c #2A5675",
"$  c #2C5977",
"%  c #275678",
"&  c #295678",
"*  c #2D5B7C",
"=  c #355B73",
"-  c #395C71",
";  c #325F7E",
":  c #3A6073",
">  c #3C657A",
",  c #575959",
"<  c #5C5D5E",
"1  c #5D635B",
"2  c #60655F",
"3  c #6A775F",
"4  c #6E7D5F",
"5  c #5E5F60",
"6  c #525E67",
"7  c #47666D",
"8  c #5C6464",
"9  c #5A646D",
"0  c #526F6C",
"q  c #5D7465",
"w  c #53706D",
"e  c #446B7A",
"r  c #406571",
"t  c #506F77",
"y  c #577A7B",
"u  c #626464",
"i  c #666B63",
"p  c #6A6D67",
"a  c #676768",
"s  c #676868",
"d  c #696B6A",
"f  c #617665",
"g  c #6C7663",
"h  c #677D67",
"j  c #6E7C62",
"k  c #6C7169",
"l  c #657B69",
"z  c #697F6B",
"x  c #72796F",
"c  c #71766E",
"v  c #697773",
"b  c #757D72",
"n  c #87191A",
"m  c #981F21",
"M  c #9E2728",
"N  c #912223",
"B  c #8E372E",
"V  c #8F3C32",
"C  c #903C33",
"Z  c #913C3E",
"A  c #983A33",
"S  c #AD3333",
"D  c #AD3738",
"F  c #A53230",
"G  c #B53B3C",
"H  c #B53638",
"J  c #82493A",
"K  c #A6443D",
"L  c #934141",
"P  c #914E40",
"I  c #9C4846",
"U  c #895543",
"Y  c #935746",
"T  c #925847",
"R  c #9A5E57",
"E  c #A44244",
"W  c #BE4748",
"Q  c #B0574E",
"!  c #A94F50",
"~  c #8F7359",
"^  c #96765C",
"/  c #A5665E",
"(  c #A36755",
")  c #B36058",
"_  c #8B7C62",
"`  c #A66B62",
"'  c #BF6B64",
"]  c #C54B4C",
"[  c #CB5555",
"{  c #C06C62",
"}  c #DB6666",
"|  c #C9776D",
" . c #72815F",
".. c #728262",
"X. c #768865",
"o. c #768569",
"O. c #78806F",
"+. c #7B8C6A",
"@. c #798A64",
"#. c #7F936F",
"$. c #77947F",
"%. c #7B947B",
"&. c #8E8B6B",
"*. c #868A68",
"=. c #988067",
"-. c #908867",
";. c #938768",
":. c #948A6A",
">. c #948767",
",. c #81966C",
"<. c #849B6F",
"1. c #818F76",
"2. c #938E70",
"3. c #829570",
"4. c #869C73",
"5. c #889C76",
"6. c #879778",
"7. c #869B7A",
"8. c #8D9B7A",
"9. c #999472",
"0. c #909D7B",
"q. c #999676",
"w. c #A49878",
"e. c #8EA37C",
"r. c #89A074",
"t. c #91A57D",
"y. c #99A77F",
"u. c #94A97E",
"i. c #2F5E81",
"p. c #305F81",
"a. c #2F6083",
"s. c #306082",
"d. c #426D82",
"f. c #497382",
"g. c #477284",
"h. c #6A8B81",
"j. c #7E9A82",
"k. c #829D83",
"l. c #939B82",
"z. c #8EA281",
"x. c #86A081",
"c. c #96AC83",
"v. c #98AE84",
"b. c #98A682",
"n. c #97B186",
"m. c #9BB185",
"M. c #9AB388",
"N. c #A7B88F",
"B. c #AABC92",
"V. c #A7BB91",
"C. c #CB9FA0",
"Z. c #C9A1A1",
"A. c #D1AAAA",
"S. c #D0A2A3",
"D. c #CCBDB6",
"F. c #B1C197",
"G. c #B8C59C",
"H. c #C1C7A1",
"J. c #C8CFA6",
"K. c #C9D2A8",
"L. c #CEC1B9",
"P. c #DADCB4",
"I. c #DEE1B8",
"U. c #E2E6BB",
"Y. c #E5E9BD",
"T. c #FFFED3",
"R. c #FFFFD4",
"E. c #FEFBD0",
/* pixels */
"                                    S G [ | w.n.v.v.v.v.                                                                        ",
"                                    S G ] { w.n.v.v.v.v.                                                                        ",
"                                } [ G S H Q w.n.n.v.v.v.v.v.                                                                    ",
"                                [ W S F K ( q.v.v.c.v.v.c.c.                                                                    ",
"                            } [ D M m A ^ q.y.c.c.c.v.v.c.c.c.c.                                                                ",
"                            ' ) I V C T &.v.V.F.F.N.c.c.N.F.F.B.                                                                ",
"                            _ _ ;.:.:.&.+.t.K.Y.Y.J.0.0.J.Y.U.U.                                                                ",
"                            j +.e.M.M.e.X.0.P.R.R.P.8.8.P.T.T.E.                                                                ",
"                            j +.e.M.n.e.X.0.P.R.R.P.8.8.P.T.T.E.                                                                ",
"                            j +.5.t.c.t.#.0.H.I.Y.K.t.8.G.P.U.Y.                                                                ",
"                                +.3.t.c.c.e.8.b.V.B.v.e.8.y.V.F.                                                                ",
"                                4 +.e.y.9.&.+.+.-.>.:.9.l.l.2.;.                                                                ",
"                                4 +.e.9.Y Y &.&.U B C ` L.D./ V                                                                 ",
"                                j +.e.9.T P ~ =./ E N I C.A.! n                                                                 ",
"                                j +.e.b.9.~ J R A.S.L n Z I                                                                     ",
"                                j +.5.c.n.&.+ Z C.Z.L . . .                                                                     ",
"                                    +.3.c.-.+ o Z L O X                                                                         ",
"                                    g o.5.&.U + + O o X                                                                         ",
"                                8 u p g o.*.&.-.-._                                                                             ",
"                                u u s p g o.6.z.z.z.                                                                            ",
"                            u u u s d d p k x b b b                                                                             ",
"                            u u s d d d d d d d d a                                                                             ",
"                            u u s d d d d d d d d u < ,                                                                         ",
"                            u u s d d d d d p p p u < ,                                                                         ",
"                        u u u s d d d d d p g g p u < ,                                                                         ",
"                        u u s d d d d d d p g g p u < ,                                                                         ",
"                        u u s d d d d d d p p p p u < ,                                                                         ",
"                        u u s d p k x c d a d d d a 2 1                                                                         ",
"                        u u s p g o.6.1.p 5 u d d p g 3                                                                         ",
"                        u u u p j +.t.8.i < u d d k j ..                                                                        ",
"                            u i j +.t.8.i < u d d k j ..                                                                        ",
"                            u i g +.t.8.g 2 i p d k j ..                                                                        ",
"                            u i g +.t.e.o.3 j g p p j ..                                                                        ",
"                            6 8 g +.t.e.+.j j g p p g j                                                                         ",
"                            = 7 f +.t.e.O.p p p p p p k                                                                         ",
"                            @ - q +.t.8.v 9 9 9 9 9 9 9                                                                         ",
"                            @ - q +.t.k.t = - - - - - -                                                                         ",
"                            @ - q +.t.j.e % & $ $ $ $ $                                                                         ",
"                            @ - q +.t.j.f.* * * * * * i.                                                                        ",
"                            @ r z 3.u.k.f.i.i.s.s.s.s.s.                                                                        ",
"                                7.u.v.k.f.i.i.s.s.s.s.s.s.s.                                                                    ",
"                                n.c.x.h.d.i.i.p.* * p.s.s.s.                                                                    ",
"                                m.k.y > s.s.s.i.* * i.s.s.s.                                                                    ",
"                                v.j.e % * s.i.* $ $ * i.s.s.                                                                    ",
"                            4 +.t.j.e & * i.* $     $ * i.s.                                                                    ",
"                            +.3.t.j.e & * i.* @     @ $ * s.                                                                    ",
"                        v.c.t.t.v.j.e & * p.        @ $ * s.                                                                    ",
"                        v.v.v.n.m.$.> & * s.        @ $ * s.                                                                    ",
"                                    = $ * s.        @ $ * s.                                                                    ",
"                                    @ $ * s.        @ $ * s.                                                                    ",
"                                    @ $ i.s.        @ $ * s.                                                                    ",
"                                    $ * i.s.        $ * i.s.                                                                    ",
"                                @ $ * i.s.s.    @ $ * i.s.s.                                                                    ",
"                                @ $ * s.s.s.    @ $ * s.s.s.                                                                    ",
"                                @ $ * s.        @ $ * s.                                                                        ",
"                                @ $ * s.        @ $ * s.                                                                        ",
"                                @ $ * s.        @ $ * s.                                                                        ",
"                                @ $ * a.        : : ; i.                                                                        ",
"                                @ $ * s.        f 0 > i.                                                                        ",
"                                @ $ > e          .h y g.                                                                        ",
"                                @ - 0 l         4 o.%.j.                                                                        ",
"                                - 7 h @.        +.3.t.n.                                                                        ",
"                                q h +.,.<.<.<.4.e.t.c.v.v.v.v.v.                                                                ",
"                                ..X.,.4.<.<.<.r.c.n.v.v.v.v.v.v.                                                                "
};
