/* XPM */
static char *_e2462a4bb074abcc4755505d34743ceqNfQkLEadoMUK4tR[] = {
/* columns rows colors chars-per-pixel */
"64 64 182 2 ",
"   c None",
".  c #100A13",
"X  c #190F1B",
"o  c #1F141E",
"O  c #24151D",
"+  c #2A171D",
"@  c #2B181C",
"#  c #311C1B",
"$  c #39251C",
"%  c #2A1929",
"&  c #371D24",
"*  c #39212A",
"=  c #26263A",
"-  c #28273A",
";  c #2B2A3B",
":  c #362335",
">  c #342A36",
",  c #3D2738",
"<  c #342B39",
"1  c #392A3C",
"2  c #382B37",
"3  c #3E3037",
"4  c #4A381E",
"5  c #49272F",
"6  c #4B282F",
"7  c #432429",
"8  c #5D2D2F",
"9  c #532C2D",
"0  c #4C3E22",
"q  c #463721",
"w  c #432933",
"e  c #4C2E36",
"r  c #442938",
"t  c #4B2C38",
"y  c #412731",
"u  c #532C32",
"i  c #532E39",
"p  c #592F39",
"a  c #5E3239",
"s  c #583337",
"d  c #6B3C2A",
"f  c #653435",
"g  c #683737",
"h  c #653C35",
"j  c #693836",
"k  c #633339",
"l  c #6C3639",
"z  c #6D3938",
"x  c #733A36",
"c  c #7B3D37",
"v  c #703739",
"b  c #753939",
"n  c #783A3A",
"m  c #713737",
"M  c #723E2C",
"N  c #4D453A",
"B  c #51493C",
"V  c #4E4123",
"C  c #654925",
"Z  c #674035",
"A  c #7B4534",
"S  c #754434",
"D  c #715439",
"F  c #7A642B",
"G  c #3B2E47",
"H  c #3B3E57",
"J  c #3F3658",
"K  c #3D3F58",
"L  c #413E46",
"P  c #403247",
"I  c #463C55",
"U  c #3F4258",
"Y  c #3D4057",
"T  c #4B474D",
"R  c #4E4552",
"E  c #404258",
"W  c #504B51",
"Q  c #464063",
"!  c #4E4B6D",
"~  c #524E6C",
"^  c #51546E",
"/  c #5B546A",
"(  c #5A5C6F",
")  c #56596E",
"_  c #5C5B7B",
"`  c #8A592B",
"'  c #8A522B",
"]  c #844633",
"[  c #864A31",
"{  c #8A4B32",
"}  c #975E32",
"|  c #8F5032",
" . c #896739",
".. c #9D6132",
"X. c #986836",
"o. c #9C662C",
"O. c #A26433",
"+. c #A46936",
"@. c #B47231",
"#. c #B47936",
"$. c #AD6B2F",
"%. c #9E873C",
"&. c #B7822C",
"*. c #A08A3E",
"=. c #B98D37",
"-. c #B9923B",
";. c #C58433",
":. c #C88531",
">. c #CB8D35",
",. c #C89437",
"<. c #D19133",
"1. c #D89D36",
"2. c #D08F33",
"3. c #C6A83E",
"4. c #C9AB3F",
"5. c #C9A63A",
"6. c #DBAA3B",
"7. c #D7B23E",
"8. c #E7A634",
"9. c #E9A734",
"0. c #EBAA34",
"q. c #E8AC38",
"w. c #F0AE34",
"e. c #ECB238",
"r. c #FBBB35",
"t. c #F2B639",
"y. c #FFC537",
"u. c #FEC63C",
"i. c #FFCB3C",
"p. c #F6C23D",
"a. c #CD9E40",
"s. c #D1A040",
"d. c #D8AC42",
"f. c #D9B644",
"g. c #E7BB45",
"h. c #EABC45",
"j. c #E9B741",
"k. c #EFC144",
"l. c #EDC648",
"z. c #F3C244",
"x. c #FFCE43",
"c. c #FFD546",
"v. c #FFDA48",
"b. c #FCD248",
"n. c #5D5F83",
"m. c #5C6486",
"M. c #5E6688",
"N. c #5F6889",
"B. c #62698A",
"V. c #656E92",
"C. c #6A6F91",
"Z. c #677193",
"A. c #687193",
"S. c #6A7298",
"D. c #6E789F",
"F. c #727999",
"G. c #737EA5",
"H. c #6F7BA2",
"J. c #7480A7",
"K. c #7682AA",
"L. c #7985AC",
"P. c #7C89B1",
"I. c #7A87B0",
"U. c #838595",
"Y. c #8E939A",
"T. c #93979F",
"R. c #8089A8",
"E. c #8C93A6",
"W. c #8591AF",
"Q. c #9A9EA3",
"!. c #8D99B7",
"~. c #97A1BF",
"^. c #A7B1BE",
"/. c #B9B9BC",
"(. c #9CA5C3",
"). c #9EA8C6",
"_. c #B6BFCC",
"`. c #C8C6C7",
"'. c #C9C7C8",
"]. c #D5DAE5",
"[. c #E4E7F0",
"{. c #E5E9F2",
/* pixels */
"            P.C.I % X . . . . . . . . . . . . . . . . . . . . . . . . . . . . . . . . . . . . . . . . . . o % I V.P.            ",
"            C.B./ R L L T W W W W W W W W W W W W W W W W W W W W W W W W W W W W W W W W W W W W W W T 3 T W / B.Z.            ",
"        : G Q _ U.T.Y.Q./.'.'.'.`.`.`.`.`.`.`.`.`.`.`.`.`.`.`.`.`.`.`.`.`.`.`.`.`.`.`.`.`.`.`.`.`.`.`./.Q.Y.T.U._ Q G :         ",
"        G G J _ E.^.^._.].{.[.[.[.[.[.{.[.[.[.[.[.[.[.[.[.[.[.[.[.[.[.[.[.[.[.[.[.[.[.[.[.[.[.[.[.[.{.]._.^.^.E._ I G 1         ",
"    : 1 G I ! n.F.R.W.!.~.(.(.(.(.(.(.(.(.~.).~.(.(.(.(.(.(.(.(.(.(.(.(.(.(.(.(.(.(.(.(.(.(.(.(.(.(.(.~.!.W.L.F.n.! I P 1 :     ",
"    G G I ~ n.V.C.G.G.K.K.K.K.K.K.K.K.K.L.L.L.J.K.K.K.K.K.J.K.J.J.K.K.J.J.K.K.J.K.K.J.K.J.K.J.J.K.K.J.K.K.J.D.S.V.n.~ I G G     ",
"P.C.Q I ! n.S.G.G.G.K.L.K.K.K.K.K.I.K.L.L.L.L.L.L.L.L.L.K.J.K.K.K.K.K.K.K.K.K.K.J.K.K.J.L.K.J.J.K.J.K.K.K.K.J.J.G.S.n.! I Q V.P.",
"A.B._ _ n.V.G.I.L.L.K.L.L.L.L.G.V.m.N.m.N.N.m.B.N.N.N.V.J.I.I.L.I.L.L.L.L.L.K.L.L.L.L.L.L.L.L.L.L.L.L.L.L.L.L.L.I.G.V.n._ _ B.A.",
"I / U.E.F.S.J.L.L.L.K.L.L.P.P.C.H - - ; - ; ; ; ; ; ; U A.P.P.L.I.L.L.L.L.L.L.L.L.L.L.L.L.J.L.L.L.L.L.K.K.L.K.R.I.G.S.F.E.U./ I ",
"% W T.^.L.D.J.L.L.L.L.L.L.G.V.( B 0 0 0 0 4 $ # @ O O > ^ B.B.B.N.V.J.L.I.L.L.L.L.J.L.L.L.L.L.L.L.J.L.L.L.L.L.J.L.G.D.R.).T.R % ",
"X L T.^.W.J.K.L.L.K.L.I.I.V.H N %.4.3.5.,.#.` d 9 5 6 y < ; ; ; ; U A.P.I.I.L.L.L.L.L.L.L.L.L.L.L.L.L.L.L.L.L.L.L.G.G.W.^.T.L X ",
". L T._.!.L.K.L.L.L.L.G.V.^ N F 7.v.v.c.t.1.$.] z k k p & + @ @ @ 2 ^ B.B.m.B.C.J.L.L.L.L.L.L.L.L.J.L.K.L.L.L.L.G.I.I.!._.Q.L . ",
". T /.].~.J.K.K.K.L.I.Z.H N %.d.p.u.i.t.>.O.A z z l v l 8 8 8 8 8 9 2 ; ; ; ; E A.P.I.I.L.I.L.J.L.K.L.L.L.L.L.J.L.K.K.~.]./.T . ",
". W `.[.(.K.K.L.L.G.Z.( N F 7.c.y.r.w.<...A g k v n n n b n n n n f * @ @ @ + 2 ^ B.M.m.m.V.J.L.R.L.L.L.L.L.L.L.L.K.K.(.{.`.W . ",
". W `.{.(.K.K.L.I.B.Y B %.7.p.i.y.w.:...A g l v b b b b n b b n n m f 8 8 8 8 u 2 - ; = = Y Z.P.P.L.P.L.L.L.K.L.L.K.K.(.{.`.W . ",
". W `.[.(.K.K.I.P.N.= 4 3.v.i.r.w.2...A g f m b b b b b b b b b b b b b n n n f 7 $ 4 0 V B ( N.B.m.B.C.G.L.L.L.L.K.K.~.[.`.W . ",
". W `.[.~.K.K.L.I.M.= q 3.v.i.w.:...A g l v b n b b b b b b n b b b b n b n b b d ` -.d.4.*.B - ; ; ; E A.P.L.L.L.K.K.(.[.`.W . ",
". W `.[.).K.L.J.Z.( N F 7.c.e.2.O.A g k l n n v b b b n b b b n b b b b b b n { +.,.k.v.v.7.C @ O O + 2 ^ A.J.L.L.K.J.(.[.`.W . ",
". W `.[.(.K.L.B.Y B %.f.p.e.:...A g l m b m m n b b b n b b b n b b b b b n ] +.a.k.u.i.i.q.o.d 9 6 8 6 2 E A.L.L.K.K.(.[.`.W . ",
". W `.[.(.K.L.B.= 0 4.v.i.8.@.[ f a l n n n v n b b b b b b b b b b b b n { +.,.k.c.y.r.e.<.O.] z g b f & 2 ^ A.K.L.K.(.[.`.W . ",
". W `.[.(.K.P.M.= 0 3.v.i.9.@.[ g a l b b b n m b b b b b b b b b b b n ] +.s.z.x.y.y.0.:.O.A z m m n l f 6 2 Y A.L.L.(.[.`.W . ",
". W `.[.(.G.V.( B F 7.x.t.<.O.A g g m b b b v n b b b b b b b b b b n { +.,.h.b.y.r.w.<.} A l k v n m n c f & , ^ V.G.(.[.`.W . ",
". W '.{.(.N.H B *.7.p.e.:...A g l v b b b b n b b b b b b b b b b n ] O.1.h.x.u.y.w.:.O.A g l v b n b n b b 8 u 2 Y B.).[.`.W . ",
". W '.{.(.m.= 4 -.z.y.9.@.[ g k l n b b b b b b b b b b b b b b n { +.,.h.c.y.r.w.2...A g k m b n m b b b b c 8 + ; m.).{.`.W . ",
". W `.{.).m.= $ ` >.t.0.@.[ g a v n b b b b b b b b b b b b b c { +.s.k.x.y.y.0.:.} A g l v b b b b b b b b n 8 + - m.).{.`.W . ",
". W `.{.).m.- $ F =.1.2...S f a l v b b b n b b b b b b b b b c { #.h.c.u.r.w.2.O.c g k m n b b b b b b b b l e O ; m.).{.`.W . ",
". W `.{.).m.- 4 =.d.;.} h e s a k l v b n v b b b b b b b b b c { #.g.c.u.0.;.O.A g l b b b b b b b b b n l i : O ; m.).{.`.W . ",
". W `.{.)._ - 0 s.z.>.} h e e i p f b c c n n b b b b b b b c { +.>.h.c.i.8.@.] g a v b b b n b b b l k f a t & o ; m.).{.`.W . ",
". W `.{.).m.= 3 a.v.t.,.} Z e r i f ] { | { n b b b b b b c { O.5.k.z.y.y.0.@.[ g a v b b b b b c l i r r t i y O ; M.).{.`.W . ",
". W `.{.).m.G 0 3.v.i.8.@.[ s r a A +.#.#.+.{ n c c b v b c | #.h.v.u.r.0.<.O.A l k v b b b l k g a r , , r i e O ; m.).{.`.W . ",
". W `.{.).n.= 0 3.v.i.8.@.[ f s A +.5.l.h.s.+.{ { { c b b c | #.h.c.y.0.:...A j l v b b n l i r r r t i i s s 6 O ; m.).{.`.W . ",
". W `.{.).m.= 0 3.v.i.q.@.' g g { #.h.v.v.z.,.#.#.+.{ c l m { #.h.v.i.8.@.[ g k v b l g k a r , r r p a a a a 6 O ; M.).{.`.W . ",
". W '.{.(.m.G 0 3.c.i.8.@.[ j j [ #.h.c.b.i.l.l.l.s.+.A i s [ #.h.v.x.8.@.{ g k l l i r r t i i i s s a a a a 6 O ; m.).{.`.W . ",
". W '.{.(.n.= V 3.c.i.8.@.' f j [ #.h.b.e.6.d.g.b.t.@.] e e Z X.a.j.q.>.} x a p k a r , , r i a a a a a a k a e O ; m.).{.`.W . ",
". W '.{.(.m.= 0 3.c.i.8.@.] j f [ #.g.l.-. .D  .6.e.#.[ g e t Z X.#.@.} Z r r , r t e i i i a a a a k a a a a 6 O ; m.).{.`.W . ",
". W _.{.(.m.= V 3.v.i.8.@.[ j j [ #.k.l.-. .s D 1.0.@.[ j s e h } #.@.} Z r r , , r p a a a a a a k k k f k a 6 O ; m.).{.`.W . ",
". W '.{.(.m.= 0 3.v.i.8.@.[ j f [ #.g.c.t.-. .X.6.9.@.' j k S X.a.j.q.>.} S a i i i p a a a a k a k l m v l k e O ; m.).{.`.W . ",
". W '.{.(.m.= 0 3.c.i.8.@.[ j j { #.g.v.i.0.=.=.q.8.@.[ j f { #.h.v.i.0.@.' j p a a a a a k k k k g v b n v k 5 O ; m.).{.`.W . ",
". W '.[.).m.= V 3.v.i.8.@.[ f j { #.h.v.i.y.e.0.r.8.@.[ j j { #.h.v.u.0.@.' j a a a k a a k l v v v n b n m k 5 O ; N.).{.`.W . ",
". W '.{.).m.= V 3.v.i.8.@.[ j k A X.s.j.0.0.r.y.y.8.@.{ j f [ #.g.c.y.8.@.[ j p a a k k k g v b b b b b b l k 5 O ; m.).{.`.W . ",
". W '.{.).m.= V 3.v.y.9.@.' j s a S +.#.@.:.w.y.y.9.@.' g g ] #.g.v.u.8.@.[ j a a k l l v v b b n v n n b v k 5 O ; m.).{.`.W . ",
". W '.{.).m.= q 3.v.i.9.@.[ j p s f A [ [ } <.0.9.<.O.A g z ' @.h.c.i.8.@.[ j 8 k l m b b c b b n n v v b z k 5 O ; m.).{.'.W . ",
". W '.{.(.m.= V 3.v.y.9.@.[ h a k l l f j A O.@.@.O.A j l n | #.g.v.u.0.@.[ j a g m n v b b b b v n n n n v k 6 O ; m.).{.`.W . ",
". W `.[.).m.= V 4.v.i.0.@.[ j k z v k k k j A { | A z k m c { #.g.v.u.8.@.[ j a l b n n b b b b n v b b b v k 6 % ; m.).{.`.W . ",
". W '.{.).m.= q 4.v.i.w.@.{ l k l b m l l l j j g l l l b c { #.g.c.i.8.@.{ g k l b b b b b b b b b b b n z k 6 O ; M.).{.`.W . ",
". W '.[.).N.Y B *.5.5.@.` M k a l b b n n v k k a g v n c c { #.g.v.i.8.@.[ g k v b b b b b b b b b b b n v k 6 O ; m.).{.'.W . ",
". W `.[.).H.V.( B 4 4 4 $ * u a k g b n n n v l l v b b b c { #.g.c.u.8.@.{ g a v b b n b b n b b b b b n v h 6 O - m.).{.`.W . ",
". W `.[.(.K.I.Z.H - - ; ; > w 6 6 6 9 f g v v v v m b b b c { #.g.c.i.8.@.[ j k l n b b b b b b b n v v v g u * > Y B.).{.`.W . ",
". W `.[.(.K.L.J.V.m.m.N.N.) > O O O @ * 9 h k k k g v b n n | #.g.c.i.8.@.[ j k z n n v n n n n b v l k f 9 & > ^ V.H.(.[.'.W . ",
". W '.[.(.K.K.L.I.L.P.P.P.A.Y ; ; ; ; < y e 6 6 6 u k v v A | @.g.c.i.8.@.[ j a l v n n b v v v v g u 6 5 y > Y Z.L.J.(.[.'.W . ",
". W '.[.(.J.J.L.L.L.L.L.L.J.V.N.B.N.B.) > O O O % & u k f z | #.g.c.i.8.@.[ j k l n n n b m k k k u & o O > ^ A.J.L.K.(.[.'.W . ",
". T /.].~.K.K.L.L.L.L.L.L.L.L.L.L.I.I.A.E ; ; ; = < 5 6 5 9 d X.g.v.i.8.@.[ j a l b v v v f u 5 5 y < ; - E A.P.L.K.K.(.]./.T . ",
". Y Q._.!.L.L.L.L.J.L.L.L.K.L.L.L.L.L.J.V.B.m.B.N.^ > O O O @ C d.v.i.0.@.[ g f m v l k k i & O O > ^ B.B.B.G.L.L.L.J.!._.Q.T . ",
"o r Y.^.W.J.J.L.L.L.L.L.L.L.L.L.L.L.L.L.L.I.L.P.P.Z.E ; ; ; ; B %.3.5.&.$.[ j a l f u e 5 y > ; ; U A.P.P.I.L.L.L.K.J.W.).T.T . ",
"% T T.^.L.D.J.L.L.L.J.L.L.L.L.L.L.L.L.L.L.L.L.I.I.J.V.N.m.B.N.( B 4 4 C ' | z a k u & O O < ^ B.B.Z.G.L.I.L.L.L.L.J.D.R.^.T.T % ",
"E / U.E.F.A.J.L.L.L.L.L.L.L.J.L.J.L.L.L.L.L.K.L.K.L.L.I.L.P.P.A.Y = = 3 d M 9 5 e y > - ; U Z.P.I.L.L.L.L.L.L.L.L.G.S.A.E.U./ I ",
"C.B._ _ n.V.G.L.L.L.L.L.L.L.L.L.L.K.L.L.L.L.L.L.L.L.I.L.L.I.I.J.B.m.N.^ 3 # O O O > ^ B.N.V.G.L.L.L.L.L.L.L.K.L.L.G.V.n._ _ B.C.",
"P.V.Q I ! m.S.G.J.J.J.L.J.L.J.J.K.K.K.K.K.K.K.K.K.K.J.K.K.K.J.K.L.L.L.Z.Y = ; ; ; Y V.L.L.L.K.K.K.K.K.K.K.K.J.G.G.S.n.! J Q S.R.",
"    G G I ! n.V.A.D.J.J.K.J.K.K.J.K.K.J.J.K.J.K.K.J.K.K.K.J.J.K.K.K.L.G.B.m.m.m.m.V.G.L.L.K.K.K.K.K.K.K.K.J.F.S.B.n.~ I G G     ",
"    : 1 P I ! n.F.R.W.!.~.(.(.(.(.(.(.(.(.(.(.(.(.(.(.(.(.(.(.(.(.(.(.(.).).).(.(.(.(.(.(.(.(.(.(.(.(.~.!.W.L.F.B.! I P G :     ",
"        1 G J _ E.^.^._.].{.{.[.[.[.[.[.[.[.[.[.[.[.[.[.[.[.[.[.[.[.[.[.{.{.{.{.{.[.[.[.[.[.[.[.[.[.{.]._.^.^.E._ J G 1         ",
"        , G Q _ U.T.Y.Q./.`.`.`.`.`.`.`.`.`.`.`.`.`.`.`.`.`.`.`.`.`.`.`.`.`.`.`.`.`.'.`.`.`.`.`.`.'.'./.Q.T.T.U._ Q G :         ",
"            A.B./ W T G T W W W W W W W W W W W W W W W W W W W W W W W W W W W W W W W W W W W W W W T L L R / B.C.            ",
"            P.A.I % X . . . . . . . . . . . . . . . . . . . . . . . . . . . . . . . . . . . . . . . . . . X % I C.P.            "
};
