/* XPM */
static char *_58f87e5668f47fb9bedcff004ea3317sDQVeaKAZsDKSMni[] = {
/* columns rows colors chars-per-pixel */
"64 64 142 2 ",
"   c None",
".  c #271C06",
"X  c #261F0A",
"o  c #3A1506",
"O  c #371A0A",
"+  c #39180A",
"@  c #0C2505",
"#  c #0E2709",
"$  c #0E290B",
"%  c #13270B",
"&  c #1D230A",
"*  c #15280B",
"=  c #0E2E15",
"-  c #112E15",
";  c #0F3019",
":  c #12311B",
">  c #23230A",
",  c #2D200C",
"<  c #222A0E",
"1  c #36260F",
"2  c #3D2A0A",
"3  c #272D11",
"4  c #2A2C11",
"5  c #362710",
"6  c #3A241E",
"7  c #3F3114",
"8  c #133525",
"9  c #143A2E",
"0  c #163C33",
"q  c #193D37",
"w  c #183F39",
"e  c #253824",
"r  c #27332E",
"t  c #2A312B",
"y  c #263D2C",
"u  c #2F3F29",
"i  c #233731",
"p  c #540E09",
"a  c #5A0E09",
"s  c #44140A",
"d  c #4C120A",
"f  c #4E1A0E",
"g  c #54110B",
"h  c #5C160E",
"j  c #521B0F",
"k  c #5D1A0A",
"l  c #461A14",
"z  c #4A1813",
"x  c #531C10",
"c  c #5D1911",
"v  c #601209",
"b  c #751B0C",
"n  c #611710",
"m  c #631D13",
"M  c #492D0A",
"N  c #4A2F17",
"B  c #5E321C",
"V  c #662417",
"C  c #6A2417",
"Z  c #692518",
"A  c #6E2B1B",
"S  c #732112",
"D  c #712D1D",
"F  c #7A2413",
"G  c #61321C",
"H  c #74311F",
"J  c #7A331F",
"K  c #4D2924",
"L  c #42352D",
"P  c #5D3120",
"I  c #563129",
"U  c #58322A",
"Y  c #6E3324",
"T  c #763421",
"R  c #783521",
"E  c #793F2D",
"W  c #743C2A",
"Q  c #194C35",
"!  c #16403A",
"~  c #18403B",
"^  c #634033",
"/  c #6B4A39",
"(  c #295B45",
")  c #3D685F",
"_  c #356961",
"`  c #474543",
"'  c #484643",
"]  c #416E6C",
"[  c #4E6F68",
"{  c #4A6B65",
"}  c #54776D",
"|  c #6E7B6B",
" . c #9D2D0B",
".. c #922811",
"X. c #982C13",
"o. c #85351E",
"O. c #8D341D",
"+. c #BE370B",
"@. c #B4380F",
"#. c #BD3614",
"$. c #8D3D23",
"%. c #D0330E",
"&. c #D83E14",
"*. c #FD3C0C",
"=. c #8E472D",
"-. c #944125",
";. c #AB4220",
":. c #AF4B25",
">. c #B34923",
",. c #BD5127",
"<. c #DC4418",
"1. c #C54C21",
"2. c #CC5225",
"3. c #C1552A",
"4. c #CE5C2D",
"5. c #D55626",
"6. c #D45D2C",
"7. c #DA5D2A",
"8. c #EA5C27",
"9. c #E15E29",
"0. c #E0602B",
"q. c #F1652A",
"w. c #F36B2F",
"e. c #F36C30",
"r. c #F86E30",
"t. c #9F7C57",
"y. c #B66A41",
"u. c #CA6F41",
"i. c #C97749",
"p. c #CA784A",
"a. c #3D807C",
"s. c #32837C",
"d. c #53816F",
"f. c #528573",
"g. c #6A8C7B",
"h. c #328B83",
"j. c #389994",
"k. c #3C9F9C",
"l. c #37A19F",
"z. c #3CA09E",
"x. c #3AA3A2",
"c. c #6A9484",
/* pixels */
"                                                                                                                                ",
"                                                                                                                                ",
"                                                                                                                                ",
"                                                                                                                                ",
"                                                            ~ w w w w w                                                         ",
"                                                            ~ ~ w w w 0                                                         ",
"                                                        ~ ! ~ ! ~ ~ ! 0 : $                                                     ",
"                                                        9 9 9 9 9 9 9 8 = $                                                     ",
"                                                        = = - - = = ; = $ = 9 ! ! !                                             ",
"                                                        M M > > 2 2 > > 2 N y 0 0 9                                             ",
"                                                        +. .k k  . .k k  .@.    ; -                                             ",
"                                                        *.%...X.&.&.X...%.*.    # $                                             ",
"                                                            2.5.8.8.5.2.                                                        ",
"                                                            e.e.w.w.e.w.                                                        ",
"                                                            e.e.w.w.w.w.                                                        ",
"                                                            6.7.8.8.7.4.                                                        ",
"                                                            -.;.<.<.;.-.                                                        ",
"                                                            T O.#.#.O.T                                                         ",
"                                                    T T R T T J O.O.R T T T T R                                                 ",
"                                                    T R T R T T T T T R T T T T                                                 ",
"                                                    R T T T T T T T T T T T T R T T                                             ",
"                                                    R T T T R T T T T T T T D D T R                                             ",
"                                                T T R R R T R T T T T T R D m m D R R T                                         ",
"                                                T H D D J T T T T T T R R A h h V D T R                                         ",
"                                    T T         R D m m D T T T T T T R R A h g h m D T T T                                     ",
"                                    T R         R A c c D R T T T R R H D Z h p p h Z D T T                                     ",
"                            T T T T         T T R A h h A T R T T R R D V h         h V D R                                     ",
"                            T T T T         T T D Z h c D R T T T R R A h p         p h A R                                     ",
"                            T T T T     T T R D V h     T T T T T R T Z h p         p c A R                                     ",
"                            -.-.-.$.    T R R A h p     R T T T T W / W c h         c m D R                                     ",
"                            6.6.6.3.-.T T R T A h p     R R T T T / } { K b 1.6.-.T A D T T                                     ",
"                            w.e.e.6.-.R T T D Z h p     D D T J J / [ { ' / 4.0.>.$.R T T T                                     ",
"                                r.6.-.T R D m h         n m D T R Y U ' ] | u.q.9.,.$.T                                         ",
"                                2.;.$.A A Z h p         s f V D D m a K _ f.t.i.p.y.=.H                                         ",
"                                F S m h c h             & X x c n v a l e ( d.c.c.g.                                            ",
"                                d p p p p p             > X O s s s s + . y s.x.x.l.                                            ",
"                                                        s O > & & & & . o L a.x.x.z.                                            ",
"                                                        v j 1 4 3 4 4 1 j I ) h.j.k.                                            ",
"                                                        D A G B B B B G D B u Q     z.k.                                        ",
"                                                        B G G B G G B G G N < @     x.k.                                        ",
"                                                    % * < 4 4 4 4 4 4 4 3 < * #         k.k.                                    ",
"                                                    - - - - $ $ $ $ $ # $ $ $ $         z.k.                                    ",
"                                                    9 9 9 8 = $ $ $ $ $ $ $ $ $ $ $         z.z.                                ",
"                                                    ~ ~ ~ 0 : - $ $ $ $ $ $ $ $ % $         z.z.                                ",
"                                                    w w w w 0 8 = $ $ $ $ % $ % $ $             k.k.                            ",
"                                                    w w w w w 0 : $ $ $ $ $ $ $ $ $             k.k.                            ",
"                                                w w w w w w w w     $ $ $ $ % $ $ $                                             ",
"                                                w w w w w w w ~     $ % $ $ $ $ $ %                                             ",
"                                                ~ w w w w w         % $ $ $ $ $ $ $                                             ",
"                                                ~ w w w w w         $ $ $ $ $ $ $ %                                             ",
"                                                w w w w w w             $ % $ $                                                 ",
"                                                ! ! w w w w             $ $ $ $                                                 ",
"                                            ! ! ! ! w w                 $ $ $ $                                                 ",
"                                            r r r r w ~                 & > & >                                                 ",
"                                            l l l 6 i !                 s s s s                                                 ",
"                                            p a p z t !                 a a g p                                                 ",
"                                            p p g g                     p p p g                                                 ",
"                                            n h g g                     m h g p                                                 ",
"                                        R T D Z c p                 W H H Z h p                                                 ",
"                                        A A D Z h p                 A D D C h p                                                 ",
"                                        c c c c a d > $ $ $ $ $ $ > f n n h g a                                                 ",
"                                        p p s s s O & $ $ $ $ $ $ & O s s s g g                                                 ",
"                                            & & & & * $ $ $ $ $ $ * & & & >                                                     ",
"                                            $ $ $ $ $ $ $ * $ $ $ $ $ $ $ $                                                     "
};
