/* XPM */
static char *cb144dc6b4ee4072b342d1389835f6b2cEFsKOpZHt522EXy[] = {
/* columns rows colors chars-per-pixel */
"64 64 140 2 ",
"   c None",
".  c #271C06",
"X  c #261F0A",
"o  c #3A1506",
"O  c #371A0A",
"+  c #39180A",
"@  c #0C2505",
"#  c #0E2709",
"$  c #0E290B",
"%  c #13270B",
"&  c #1D230A",
"*  c #15280B",
"=  c #0E2E15",
"-  c #112E15",
";  c #0F3019",
":  c #12311B",
">  c #23230A",
",  c #2D200C",
"<  c #222A0E",
"1  c #36260F",
"2  c #3D2A0A",
"3  c #272D11",
"4  c #2A2C11",
"5  c #362710",
"6  c #3A241E",
"7  c #3F3114",
"8  c #133525",
"9  c #143A2E",
"0  c #163C33",
"q  c #193D37",
"w  c #183F39",
"e  c #253824",
"r  c #27332E",
"t  c #2A312B",
"y  c #263D2C",
"u  c #2F3F29",
"i  c #233731",
"p  c #550E09",
"a  c #5A0E09",
"s  c #44140A",
"d  c #4C120A",
"f  c #4E1A0E",
"g  c #54110B",
"h  c #5C160E",
"j  c #521B0F",
"k  c #5D1A0B",
"l  c #461A14",
"z  c #4A1813",
"x  c #531C10",
"c  c #5D1911",
"v  c #601209",
"b  c #751B0C",
"n  c #611710",
"m  c #631D13",
"M  c #492D0A",
"N  c #4A2F17",
"B  c #5E321C",
"V  c #662417",
"C  c #692417",
"Z  c #692518",
"A  c #6E2B1B",
"S  c #712D1D",
"D  c #61321C",
"F  c #74311F",
"G  c #7A331F",
"H  c #4D2924",
"J  c #42352D",
"K  c #5D3120",
"L  c #563129",
"P  c #58322A",
"I  c #6E3324",
"U  c #773421",
"Y  c #783521",
"T  c #793F2D",
"R  c #743C2A",
"E  c #194C35",
"W  c #16403A",
"Q  c #18403B",
"!  c #634033",
"~  c #6B4A39",
"^  c #295B45",
"/  c #3D685F",
"(  c #356961",
")  c #474543",
"_  c #484643",
"`  c #4A6B65",
"'  c #416E6C",
"]  c #4E6F68",
"[  c #54776D",
"{  c #6E7B6B",
"}  c #9D2D0B",
"|  c #922811",
" . c #982C13",
".. c #8D341D",
"X. c #BE370B",
"o. c #B4380F",
"O. c #BD3614",
"+. c #8D3D23",
"@. c #D0330E",
"#. c #D83E14",
"$. c #FD3C0C",
"%. c #8E472D",
"&. c #934125",
"*. c #9C4425",
"=. c #AB4220",
"-. c #AF4B25",
";. c #BD5127",
":. c #BB5229",
">. c #DC4418",
",. c #C54C21",
"<. c #CD5124",
"1. c #CE5C2D",
"2. c #D55626",
"3. c #D35D2C",
"4. c #DA5E2B",
"5. c #EA5C27",
"6. c #E15E29",
"7. c #E0602B",
"8. c #E8662E",
"9. c #EF692F",
"0. c #F1652A",
"q. c #F06A2F",
"w. c #F36B30",
"e. c #9F7C57",
"r. c #B66A41",
"t. c #CA6F41",
"y. c #C97749",
"u. c #CA784A",
"i. c #32837C",
"p. c #3D807C",
"a. c #53816F",
"s. c #528573",
"d. c #6A8C7B",
"f. c #328B83",
"g. c #389994",
"h. c #3C9F9C",
"j. c #37A19F",
"k. c #3CA09E",
"l. c #3AA3A2",
"z. c #6A9484",
/* pixels */
"                                                                                                                                ",
"                                                                                                                                ",
"                                                                                                                                ",
"                                                                                                                                ",
"                                                            Q Q w w w w                                                         ",
"                                                            Q Q w w w 0                                                         ",
"                                                        Q W Q W Q Q W 0 : $                                                     ",
"                                                        9 9 9 9 9 9 9 8 = $                                                     ",
"                                                        = = - - = = ; = $ = 9 W W W                                             ",
"                                                        M M > > 2 2 > > 2 N y W 9 9                                             ",
"                            U U U Y                     X.} k k } } k k } o.    ; -                                             ",
"                            Y U U U                     $.@.|  .#.#.} | @.$.    $ $                                             ",
"                            U U U Y                         <.2.5.5.2.<.                                                        ",
"                            Y U U U                         w.w.9.9.w.w.                                                        ",
"                                    U U                     w.w.q.q.w.w.                                                        ",
"                                    Y U                     3.4.5.5.4.3.                                                        ",
"                                                            &.=.>.>.=.&.                                                        ",
"                                                            U ..O.O...U                                                         ",
"                                                    U Y Y U U G ....Y Y U U U Y                                                 ",
"                                                    U U U U U U U U U U U U U U                                                 ",
"                                                    Y U U U U Y U U U U U U U Y U U                                             ",
"                                                    Y U Y U U U U U U U U U S S U U                                             ",
"                            9.9.                U U Y U U U U U U U U U U S m m S Y Y U                                         ",
"                            9.q.                U U S S U U U U U U U U Y A c h V S U Y                                         ",
"                            9.q.w.3.&.U         Y F m m S U U U U U U Y Y A h g h m S Y Y U                                     ",
"                            q.8.4.:.+.U         Y A h c A Y Y U U U Y F S Z h p p h Z A U U                                     ",
"                                *.+.Y U U U U Y Y A h h A U Y Y Y U Y S m h         h m S Y                                     ",
"                                U U U Y U U Y U F Z h c S Y U U U Y Y A c p         p h A Y                                     ",
"                                    U U U Y U S m h     U U U U U U U A h p         p h A Y                                     ",
"                                    U U S A A C h p     Y U U U U R ~ R c h         h V S Y                                     ",
"                                        c h h h g p     Y Y U G F ~ [ ` H b ,.3.&.U A S U U                                     ",
"                                        p p g p p p     S S U U G ~ ] ` _ ~ 1.7.-.+.Y U U U                                     ",
"                                                        n m S Y U I P _ ' { t.0.6.;.+.U                                         ",
"                                                        s f V S S C a H ( s.e.y.u.r.%.F                                         ",
"                                                        & , f h v h a l e ^ a.z.z.d.                                            ",
"                                                        & > + s s s s o . y i.l.l.k.                                            ",
"                                                        s + X & & & & . o J p.l.l.k.                                            ",
"                                                        n j 5 3 3 3 4 5 j L / f.g.h.                                            ",
"                                                        S A D B B D B D A B u E     h.k.                                        ",
"                                                        B D D B B D D D D N < @     l.k.                                        ",
"                                                    $ * < 4 4 4 4 4 4 4 3 & * $         k.k.                                    ",
"                                                    - - - - $ # $ $ $ $ $ $ $ $         k.k.                                    ",
"                                                    9 9 9 8 = $ # $ $ $ $ $ $ $ $ $         k.k.                                ",
"                                                    Q Q Q 0 : - $ $ $ $ % $ $ $ % $         k.k.                                ",
"                                                    w w w q 0 8 = $ $ $ % $ % $ $ $             h.h.                            ",
"                                                    w w w w w 0 ; $ $ $ $ $ $ $ $ $             h.h.                            ",
"                                                w w w w w w w w     $ $ $ % $ $ $ $                                             ",
"                                                w w w w w w w Q     % $ $ $ $ $ $ %                                             ",
"                                                w w w w w w         $ % $ $ $ $ % $                                             ",
"                                                w w w w w w         $ $ $ $ % $ $ $                                             ",
"                                                w w w w w w             $ $ $ $                                                 ",
"                                                W W w w w w             $ $ $ $                                                 ",
"                                            w w W W w w                 $ $ $ $                                                 ",
"                                            r r r i q W                 > > & &                                                 ",
"                                            l l l 6 r W                 s s s s                                                 ",
"                                            p p a z t W                 p a g p                                                 ",
"                                            p p g g                     p p p g                                                 ",
"                                            m h g g                     m h g p                                                 ",
"                                        Y U S C h p                 R F F C h p                                                 ",
"                                        A S S C h g                 A S S C h p                                                 ",
"                                        c n c c g d > $ $ $ $ $ $ > j c n h g g                                                 ",
"                                        p d s s s + & $ $ $ $ $ $ & O s s s g a                                                 ",
"                                            > & & & % $ $ $ $ $ $ % & & & >                                                     ",
"                                            $ $ $ $ $ $ $ % $ $ $ $ $ $ $ $                                                     "
};
