/* XPM */
static char *f9bf1b0f641f49fbda87e5d302a48fc5sB4fuL9WDiSjkJfE[] = {
/* columns rows colors chars-per-pixel */
"64 64 139 2 ",
"   c None",
".  c #271C06",
"X  c #261F0A",
"o  c #3A1506",
"O  c #371A0A",
"+  c #39180A",
"@  c #0C2505",
"#  c #0E2709",
"$  c #0E290B",
"%  c #13270B",
"&  c #1D230A",
"*  c #15280B",
"=  c #0E2E15",
"-  c #112E15",
";  c #13311C",
":  c #23230A",
">  c #2D200C",
",  c #222A0E",
"<  c #36260F",
"1  c #3D2A0A",
"2  c #272D11",
"3  c #2A2C11",
"4  c #362710",
"5  c #3A241E",
"6  c #3F3115",
"7  c #133525",
"8  c #143A2E",
"9  c #173C32",
"0  c #193D37",
"q  c #183F39",
"w  c #253824",
"e  c #27332E",
"r  c #2A312B",
"t  c #263D2D",
"y  c #2F3F29",
"u  c #233731",
"i  c #550E09",
"p  c #5A0E09",
"a  c #44140A",
"s  c #4C120A",
"d  c #4E1A0E",
"f  c #54110B",
"g  c #5C160E",
"h  c #521B0F",
"j  c #5D1A0B",
"k  c #461A14",
"l  c #4A1813",
"z  c #531C10",
"x  c #5D1911",
"c  c #601209",
"v  c #751B0C",
"b  c #611710",
"n  c #631D13",
"m  c #492D0A",
"M  c #4A2F17",
"N  c #5E321C",
"B  c #662417",
"V  c #692417",
"C  c #692518",
"Z  c #6E2B1B",
"A  c #712D1D",
"S  c #61321C",
"D  c #74311F",
"F  c #7A331F",
"G  c #4D2924",
"H  c #42352D",
"J  c #5D3120",
"K  c #563129",
"L  c #58322A",
"P  c #6E3324",
"I  c #773421",
"U  c #783521",
"Y  c #743C2A",
"T  c #793F2D",
"R  c #194C35",
"E  c #16403A",
"W  c #18403B",
"Q  c #634033",
"!  c #6B4A39",
"~  c #295B45",
"^  c #3D685F",
"/  c #356961",
"(  c #474543",
")  c #484643",
"_  c #4A6B65",
"`  c #416E6C",
"'  c #4E6F68",
"]  c #54776D",
"[  c #6E7B6B",
"{  c #9D2D0B",
"}  c #922811",
"|  c #982C13",
" . c #8D341D",
".. c #BE370B",
"X. c #B2380F",
"o. c #BD3614",
"O. c #8D3D23",
"+. c #D0330E",
"@. c #D83E14",
"#. c #FC3B0C",
"$. c #8E472D",
"%. c #934125",
"&. c #9C4425",
"*. c #AB4220",
"=. c #AF4B25",
"-. c #BD5127",
";. c #BB5229",
":. c #DC4418",
">. c #C54C21",
",. c #CD5124",
"<. c #CE5C2D",
"1. c #D55626",
"2. c #D35D2C",
"3. c #DA5E2B",
"4. c #EA5C27",
"5. c #E15E29",
"6. c #E0602B",
"7. c #E8662E",
"8. c #EF692F",
"9. c #F1652A",
"0. c #F06A2F",
"q. c #F36B30",
"w. c #9F7C57",
"e. c #B66A41",
"r. c #CA6F41",
"t. c #C97749",
"y. c #CA784A",
"u. c #32837C",
"i. c #3D807C",
"p. c #53816F",
"a. c #528573",
"s. c #6A8C7B",
"d. c #328B83",
"f. c #389994",
"g. c #3C9F9C",
"h. c #37A19F",
"j. c #3CA09E",
"k. c #3AA3A2",
"l. c #6A9484",
/* pixels */
"                                                                                                                                ",
"                                                                                                                                ",
"                                                                                                                                ",
"                                                                                                                                ",
"                                    I U                     W q q q q E                                                         ",
"                                    I I                     W W q q q 9                                                         ",
"                            I I I U                     W E E W W W E 9 ; #     W W                                             ",
"                            U I I I                     8 8 8 8 8 8 8 7 = $     8 8                                             ",
"                            I I I U                     = = - - = = = = $ = 8 8 ; =                                             ",
"                            U I I I                     m m : : 1 1 : : 1 M t 8 = $                                             ",
"                                                        ..{ j j { { j j { X.                                                    ",
"                                                        #.+.} | @.:.| } +.#.                                                    ",
"                                                            ,.1.4.4.1.,.                                                        ",
"                                                            q.q.8.8.q.0.                                                        ",
"                                                            q.q.8.0.0.0.                                                        ",
"                                                            2.3.4.4.3.3.                                                        ",
"                                                            %.*.:.:.*.%.                                                        ",
"                                                            I  .o.o. .I                                                         ",
"                                                    I U U I I F  . .U U I I I I                                                 ",
"                                                    I I I I I I I I I I I U I I                                                 ",
"                                                    U I I I I U I I I I I I U U I I                                             ",
"                                                    U I U I I I I I I I I I A A I I                                             ",
"                            8.8.                I I U I I I I I I I I I U Z n x D U U I                                         ",
"                            8.0.                I I A A I I I I I I I I I Z x g V A I U                                         ",
"                            8.0.q.2.%.I         U D n n A I I I I I U U U Z g f g n A U U I                                     ",
"                            0.7.3.;.O.I         U Z g x Z U U I I I I D A C g i i g C Z I I                                     ",
"                                &.O.U I I I I U U Z g g Z I U U I I U A B g         g B A U                                     ",
"                                I I I U I I U I D C g x A U I I U U U Z g i         i g Z I                                     ",
"                                    I I I U I A n g     I I I I I I I Z g i         i g A U                                     ",
"                                    I I A Z Z V g i     U I I I I Y ! Y z c         g B D U                                     ",
"                                        x g g g f i     U U I F I ! ] _ G v >.2.%.D Z D D I                                     ",
"                                        i i f i i i     A A I I I ! ' _ ) ! <.6.=.O.U I I I                                     ",
"                                                        g n A U I I L ) ` [ r.9.5.-.O.I                                         ",
"                                                        a d B A A n p G / a.w.t.y.e.$.D                                         ",
"                                                        & > d x b g p k w ~ ] l.l.s.                                            ",
"                                                        & X + a a a a o . t u.k.k.j.                                            ",
"                                                        a + : & & & & . o H i.k.k.j.                                            ",
"                                                        b h 4 3 2 3 3 4 h L / d.f.g.                                            ",
"                                                        A Z S N N S N S A N y R     j.g.                                        ",
"                                                        N S S N S N S S S M , @     k.g.                                        ",
"                                                    % * , 3 3 3 3 3 3 3 2 2 % $         j.j.                                    ",
"                                                    - - = - $ # # $ $ $ $ $ $ $         j.j.                                    ",
"                                                    8 8 8 7 - # $ $ $ $ $ $ $ $ $ #         j.j.                                ",
"                                                    W W W 9 ; - $ $ $ $ $ $ $ $ % $         j.j.                                ",
"                                                    q q q q 9 7 = # $ $ % $ $ % $ $             g.g.                            ",
"                                                    q q q q q 9 ; $ $ $ $ $ $ $ $ $             g.g.                            ",
"                                                q q q q q q q q     # $ $ % $ $ $ $                                             ",
"                                                q q q q q q q W     # % $ $ $ $ $ %                                             ",
"                                                W q q q q q         % $ $ $ % # $ %                                             ",
"                                                W q q q q q         $ $ $ $ $ = $ #                                             ",
"                                                q q q q q q             $ % $ $                                                 ",
"                                                E E q q q q             $ $ $ $                                                 ",
"                                            E E E E q q                 $ $ $ $                                                 ",
"                                            e e e e q W                 : : & &                                                 ",
"                                            k k k 5 u E                 a a a a                                                 ",
"                                            i p i l r E                 i i p f                                                 ",
"                                            i i i h                     f i i f                                                 ",
"                                            b g f f                     n g f f                                                 ",
"                                        U I A C g i                 U I A C g i                                                 ",
"                                        Z Z A C g f                 Z A A C g i                                                 ",
"                                        x g x x f a > # $ $ $ $ $ : l b b g f p                                                 ",
"                                        i f a a a + & # $ $ $ $ % & O a a a f i                                                 ",
"                                            : & : * % $ $ $ $ $ $ % * : & :                                                     ",
"                                            $ $ $ $ $ $ $ $ % $ $ $ $ $ # $                                                     "
};
