/* XPM */
static char *c3746467a6f54bd8a2d8d90ff05671f41pXZOVDwdUlY2h67[] = {
/* columns rows colors chars-per-pixel */
"64 64 141 2 ",
"   c None",
".  c #271C06",
"X  c #261F0A",
"o  c #3A1506",
"O  c #371A0A",
"+  c #39180A",
"@  c #0C2505",
"#  c #0E2709",
"$  c #0E290B",
"%  c #13270B",
"&  c #1D230A",
"*  c #15280B",
"=  c #0E2E15",
"-  c #112E15",
";  c #12311B",
":  c #23230A",
">  c #2D200C",
",  c #222A0E",
"<  c #36260F",
"1  c #3D2A0A",
"2  c #272D11",
"3  c #2A2C11",
"4  c #362710",
"5  c #3A241E",
"6  c #3F3115",
"7  c #133525",
"8  c #143A2E",
"9  c #163C33",
"0  c #193D37",
"q  c #183F39",
"w  c #253824",
"e  c #27332E",
"r  c #2A312B",
"t  c #253D2C",
"y  c #2F3F29",
"u  c #233731",
"i  c #540E09",
"p  c #5A0E09",
"a  c #44140A",
"s  c #4C120A",
"d  c #4E1A0E",
"f  c #54110B",
"g  c #5C160E",
"h  c #521B0F",
"j  c #5D1A0A",
"k  c #461A14",
"l  c #4A1813",
"z  c #531C10",
"x  c #5D1911",
"c  c #601209",
"v  c #751B0C",
"b  c #611710",
"n  c #631D13",
"m  c #492D0A",
"M  c #4A2F17",
"N  c #5E321C",
"B  c #662417",
"V  c #6A2417",
"C  c #692518",
"Z  c #6E2B1B",
"A  c #732112",
"S  c #712D1D",
"D  c #7A2413",
"F  c #61321C",
"G  c #74311F",
"H  c #7A331F",
"J  c #4D2924",
"K  c #42352D",
"L  c #5D3120",
"P  c #563129",
"I  c #58322A",
"U  c #6E3324",
"Y  c #763421",
"T  c #783521",
"R  c #793F2D",
"E  c #743C2A",
"W  c #194C35",
"Q  c #16403A",
"!  c #18403B",
"~  c #634033",
"^  c #6B4A39",
"/  c #295B45",
"(  c #3D685F",
")  c #356961",
"_  c #474543",
"`  c #484643",
"'  c #4A6B65",
"]  c #416E6C",
"[  c #4E6F68",
"{  c #54776D",
"}  c #6E7B6B",
"|  c #9D2D0B",
" . c #922811",
".. c #982C13",
"X. c #85351E",
"o. c #8D341D",
"O. c #BE370B",
"+. c #B3380F",
"@. c #BD3614",
"#. c #8D3D23",
"$. c #D0330E",
"%. c #D83E14",
"&. c #FD3C0C",
"*. c #8E472D",
"=. c #944125",
"-. c #AB4220",
";. c #AF4B25",
":. c #B34923",
">. c #BD5127",
",. c #DC4418",
"<. c #C54C21",
"1. c #CC5225",
"2. c #C1552A",
"3. c #CE5C2D",
"4. c #D55626",
"5. c #D45D2C",
"6. c #DA5D2A",
"7. c #EA5C27",
"8. c #E15E29",
"9. c #E0602B",
"0. c #F1652A",
"q. c #F36B2F",
"w. c #F36C30",
"e. c #F86E30",
"r. c #9F7C57",
"t. c #B66A41",
"y. c #CA6F41",
"u. c #C97749",
"i. c #CA784A",
"p. c #32837C",
"a. c #3D807C",
"s. c #53816F",
"d. c #528573",
"f. c #6A8C7B",
"g. c #328B83",
"h. c #389994",
"j. c #3C9F9C",
"k. c #37A19F",
"l. c #3CA09E",
"z. c #3AA3A2",
"x. c #6A9484",
/* pixels */
"                                                                                                                                ",
"                                                                                                                                ",
"                                                                                                                                ",
"                                                                                                                                ",
"                                                            q q q q q q                                                         ",
"                                                            q q q q q 9                                                         ",
"                                                        ! ! ! ! ! ! ! 9 ; #     q q                                             ",
"                                                        8 8 8 8 8 8 8 7 = $     ! q                                             ",
"                                                        = = = = = = = = $ = 8 !                                                 ",
"                                                        m 1 : : 1 1 : : 1 6 t 9                                                 ",
"                                                        O.| j j | | j j | +.    $ $                                             ",
"                                                        &.$. ...%.%... .$.&.    $ $                                             ",
"                                                            1.4.7.7.4.1.                                                        ",
"                                                            w.w.w.w.w.w.                                                        ",
"                                                            w.w.w.w.w.w.                                                        ",
"                                                            5.6.7.7.6.5.                                                        ",
"                                                            =.-.,.,.-.=.                                                        ",
"                                                            Y o.@.@.o.Y                                                         ",
"                                                    Y Y Y Y Y H o.o.H Y Y Y Y Y                                                 ",
"                                                    Y Y Y Y Y Y Y Y Y Y Y Y Y Y                                                 ",
"                                                    Y Y Y Y Y Y Y Y Y Y Y Y T T Y Y                                             ",
"                                                    Y Y Y Y Y Y Y Y Y Y Y Y S S Y T                                             ",
"                                                Y Y T T Y Y Y Y Y Y Y Y T S n n S T T Y                                         ",
"                                                Y Y S S Y Y Y Y Y Y Y T T Z g g B S Y T                                         ",
"                                    Y Y         T S n n S T Y Y Y Y Y T T Z g i g n S T T Y                                     ",
"                                    Y Y         T Z g g Z T T Y Y Y Y Y S C g i i g C S Y Y                                     ",
"                            Y Y Y Y         Y T T Z g g Z T T Y Y Y T S n g         g n S T                                     ",
"                            Y Y Y Y         Y Y S C g x S T Y Y Y T T Z g i         i g Z T                                     ",
"                            Y Y Y Y     Y Y T S n g     Y Y Y Y Y T H Z g i         i g Z T                                     ",
"                            =.=.=.=.    Y T T Z g i     T Y Y Y Y E ^ ~ x c         x n S T                                     ",
"                            5.5.5.2.=.Y Y T T Z g i     T T Y Y H ^ { ' J v <.5.=.Z Z S Y Y                                     ",
"                            q.w.w.5.=.Y Y Y S C g i     S S Y T H ^ [ ] _ R 3.9.;.#.T Y Y Y                                     ",
"                                e.5.=.Y Y S n g         g n S T T U I ` ] } y.0.8.>.#.Y                                         ",
"                                1.:.X.Z Z C g i         a d B S S V g J ) d.r.u.i.t.*.G                                         ",
"                                D A n g g g             & > d b b g p k w / s.x.x.f.                                            ",
"                                i i i i i i             & X + a a a a o . t p.z.z.k.                                            ",
"                                                        a + X & & & & . o K a.z.z.l.                                            ",
"                                                        b z 4 2 2 2 2 < h P ( g.h.l.                                            ",
"                                                        S Z F N N N N F S L y W     l.j.                                        ",
"                                                        N N F F F F F F F M , @     z.j.                                        ",
"                                                    $ * , 3 3 3 3 3 3 3 3 , * #         j.j.                                    ",
"                                                    - - = = $ $ $ $ $ $ $ $ $ $         l.j.                                    ",
"                                                    8 8 8 7 = $ $ $ $ $ $ $ $ $ $ #         j.j.                                ",
"                                                    ! ! ! 9 ; - $ $ $ $ $ $ $ $ $ $         j.j.                                ",
"                                                    q q q 0 9 7 - $ $ $ $ $ $ $ $ $             j.j.                            ",
"                                                    q q q q ! 9 ; $ $ $ $ $ $ $ $ $             j.j.                            ",
"                                                q q q q q q q 0     $ $ $ $ $ $ $ $                                             ",
"                                                q q q q q q q !     $ $ $ $ $ $ $ $                                             ",
"                                                q q q q q q         $ $ $ $ $ $ $ $                                             ",
"                                                q q q q q q         $ $ $ $ $ $ $ $                                             ",
"                                                q q q q q q             $ $ $ $                                                 ",
"                                                Q Q q q q q             $ $ $ $                                                 ",
"                                            Q Q Q Q q q                 $ $ $ $                                                 ",
"                                            e e e u 0 q                 : : : :                                                 ",
"                                            k k k 5 u Q                 a a a a                                                 ",
"                                            i i i l r Q                 i i i i                                                 ",
"                                            i i i f                     i i i i                                                 ",
"                                            n g f i                     n g f i                                                 ",
"                                        T Y S V g i                 T Y S V g i                                                 ",
"                                        Z Z S V g f                 Z S S V g i                                                 ",
"                                        x x x g f s : $ $ $ $ $ $ : h n n g f i                                                 ",
"                                        i s a a a O & $ $ $ $ $ $ & O a a a f i                                                 ",
"                                            : & : & % $ $ $ $ $ $ % & & & :                                                     ",
"                                            $ $ $ $ $ $ $ $ $ $ $ $ $ $ $ $                                                     "
};
